<?xml version="1.0" encoding="utf-8"?>
<!-- Generator: Adobe Illustrator 27.5.0, SVG Export Plug-In . SVG Version: 6.00 Build 0)  -->
<svg version="1.1" xmlns="http://www.w3.org/2000/svg" xmlns:xlink="http://www.w3.org/1999/xlink" x="0px" y="0px"
	 viewBox="0 0 500 500" style="enable-background:new 0 0 500 500;" xml:space="preserve">
<g id="BACKGROUND">
	<rect style="fill:#FFFFFF;" width="500" height="500"/>
</g>
<g id="OBJECTS">
	<g>
		<circle style="fill:#29ABE2;" cx="250" cy="250" r="188.5"/>
		<path style="opacity:0.5;fill:#1B79A1;" d="M434.31,154.16l-57.6,21.19l1.55,3.78l0,0.001l-6.194,2.272l-29.988,11.001
			l0.979,2.834l-7.044,2.602l-19.854,7.338l-63.942-6.437c-2.736-0.274-5.493,0.278-7.911,1.587L212.561,217.5l-31.023,7.189
			l-16.832-7.357l-6.046-2.642l1.784-3.89l-28.483-13.718l-6.244-3.008l0.003-0.005l1.91-3.6l-55.27-26.69L0,120.03v145.95
			l6.56,3.83l0.007,0.004c1.336,3.835,4.885,6.67,9.19,6.879c0.793,0.039,1.567-0.023,2.317-0.157l0.006,0.004l48.82,28.51
			l14.399-27.168l12.96,5.883l27.09,12.301l3.747-8.171l12.544,6.009l8.471,4.059c4.67,3.444,12.355,9.558,19.614,15.42
			c-2.489-0.214-3.543,0.839-3.543,0.839c-5.104,3.617,1.295,15.991,8.098,19.144c2.101,0.975,4.087,1.229,5.816,0.996
			c1.795-0.243,3.309-1.014,4.399-2.049c-0.587,1.73-1.037,3.368-1.379,4.813c-1.436,6.068,2.334,12.245,8.434,13.541
			c6.221,1.322,12.382-1.829,12.382-1.829s-1.1,4.666,4.219,9.172c0.378,0.323,0.787,0.64,1.233,0.958
			c6.812,4.842,14.865,2.078,15.322,1.864c0,0,0.401,3.908,4.175,6.768c0.318,0.241,0.67,0.471,1.038,0.695l-0.004,0.005
			c0,0,0.087,0.05,0.213,0.118c0.655,0.381,1.38,0.732,2.201,1.03c0.111,0.04,0.212,0.071,0.321,0.109
			c3.057,1.161,8.159,2.354,12.584-0.215c4.121-2.393,7.49-4.433,9.523-5.68c4.641,2.198,9.019,3.438,14.322,3.396
			c4.023-0.031,6.611-1.931,8.262-4.156c2.353-3.169,2.804-6.993,2.804-6.993s2.637,2.089,4.974,2.824
			c2.336,0.735,10.036,2.286,15.596-4.298c0.577-0.681,1.059-1.355,1.464-2.014c3.467-5.603,1.304-10.194,1.224-10.364l-0.003-0.003
			c3.337,1.098,15.471,0.411,19.412-8.572c0.029-0.063,0.054-0.123,0.079-0.186c3.741-8.803-1.515-16.828-1.638-17.017
			c13.262,7.417,19.787,2.542,22.939-2.087c2.34-3.438,2.505-8.789,2.434-11.315c-0.002-0.051-0.004-0.104-0.009-0.155
			c-0.039-0.815-0.23-1.618-0.56-2.364c-0.003-0.004-0.003-0.004-0.007-0.007l-2.995-6.72c0,0,2.31-1.292,5.635-3.573
			c0.549-0.375,1.126-0.779,1.724-1.206c0.127-0.091,0.262-0.193,0.391-0.286c0.477-0.345,0.959-0.694,1.458-1.069
			c0.185-0.139,0.377-0.291,0.564-0.434c0.455-0.347,0.91-0.694,1.378-1.064c0.224-0.178,0.453-0.369,0.68-0.552
			c0.438-0.353,0.875-0.706,1.318-1.078c0.256-0.215,0.513-0.443,0.77-0.664c0.417-0.359,0.833-0.716,1.25-1.09
			c0.282-0.253,0.56-0.516,0.841-0.776c0.39-0.36,0.778-0.718,1.164-1.09c0.302-0.291,0.596-0.592,0.895-0.89
			c0.358-0.358,0.715-0.714,1.066-1.083c0.313-0.328,0.615-0.665,0.921-1c0.236-0.259,0.481-0.51,0.713-0.774
			c0.187-0.214,0.375-0.428,0.559-0.645l9.503-3.476l2.826,8.178l30.1-10.274l11.52-3.932l0.002,0.004l11.69,28.43L500,261.24
			V122.71L434.31,154.16z M182.101,326.741c0.179,0.147,0.338,0.278,0.497,0.409c-0.111,0.231-0.214,0.46-0.32,0.691
			C182.238,327.474,182.184,327.107,182.101,326.741z"/>
		<g>
			<path style="fill:#FAB29A;" d="M225.914,353.301c0,0,8.482,5.011,15.319,1.042c6.837-3.97,11.629-6.984,11.629-6.984
				l-15.024-8.813L225.914,353.301z"/>
			<path style="opacity:0.5;fill:#CC8A79;" d="M225.914,353.301c0,0,8.482,5.011,15.319,1.042c6.837-3.97,11.629-6.984,11.629-6.984
				l-15.024-8.813L225.914,353.301z"/>
			<path style="fill:#875C50;" d="M340.19,299.19c-3.15,4.63-9.68,9.51-22.94,2.09c0,0,0.01,0.01,0.02,0.03
				c0.3,0.48,4.34,6.9,2.46,14.47c-0.2,0.83-0.48,1.67-0.84,2.52c-0.03,0.06-0.05,0.12-0.08,0.18c-3.94,8.99-16.07,9.67-19.41,8.57
				v0.01c0.08,0.17,2.25,4.76-1.22,10.36c-0.41,0.66-0.89,1.33-1.47,2.02c-5.56,6.58-13.26,5.03-15.59,4.29
				c-2.34-0.73-4.98-2.82-4.98-2.82s-0.45,3.82-2.8,6.99c-1.65,2.23-4.24,4.13-8.26,4.16c-6.45,0.05-11.52-1.77-17.36-4.93
				c-1.32-0.71-2.67-1.49-4.09-2.33c-1.83-1.09-3.77-2.28-5.86-3.56c-10.93-6.69-53.46-27.68-53.46-27.68s-7.86-6.5-16.84-13.76
				c-7.74-6.27-16.31-13.12-21.36-16.84l-8.47-4.06l-24.72-11.84l-11.6-5.56l-33.31-15.95l45.8-65.46l22.58,9.87l28.32,12.37
				l16.83,7.36l38.37-8.89l9.19-2.16l30.76,19.5l76.15,48.29l3.04,12.2l3,6.72c0,0,0,0,0.01,0.01c0.33,0.74,0.52,1.55,0.56,2.36
				c0,0.05,0,0.11,0.01,0.16C342.7,290.4,342.53,295.75,340.19,299.19z"/>
			<path style="opacity:0.5;fill:#875C50;" d="M243.629,344.798c-1.829-1.089-3.766-2.281-5.863-3.562
				c-10.929-6.685-53.453-27.672-53.453-27.672s-7.868-6.503-16.84-13.769c-7.746-6.271-16.315-13.112-21.363-16.834l-8.471-4.059
				l-24.723-11.844l5.248-9.143l37.396,17.65c0,0,46.415,39.097,59.822,47.53c13.407,8.434,27.756,19.413,27.756,19.413
				L243.629,344.798z"/>
			<polygon style="opacity:0.5;fill:#875C50;" points="164.707,202.332 137.639,278.904 101.318,261.504 136.39,189.959 			"/>
			<path style="opacity:0.5;fill:#875C50;" d="M342.056,285.358c-0.003-0.003-0.003-0.003-0.007-0.007l-2.995-6.72l-3.042-12.197
				l-76.149-48.291l-0.001,0.001L229.1,198.637l-9.185,2.159l-5.791,8.324l-25.847,35.441c0,0,4.417,11.11,18.585,9.917
				c14.168-1.196,26.133-20.847,31.132-23.184c1.985-0.927,13.073,3.022,26.827,8.824c20.315,11.248,59.947,33.324,68.388,39
				c4.6,3.094,7.539,6.107,9.408,8.604C342.577,286.907,342.386,286.104,342.056,285.358z"/>
			<path style="opacity:0.5;fill:#875C50;" d="M319.73,315.78c-7.99-5.61-21.43-14.76-28.29-19.46c-11.24-7.7-9.84-17.42-9.84-17.42
				l35.65,22.38c0,0,0.01,0.01,0.02,0.03C317.57,301.79,321.61,308.21,319.73,315.78z"/>
			<path style="opacity:0.5;fill:#875C50;" d="M298.178,337.422c-5.684-3.833-15.001-10.125-20.671-13.978
				c-8.596-5.839-8.971-17.067-8.971-17.067l30.863,20.677l0.003,0.004C299.482,327.228,301.645,331.819,298.178,337.422z"/>
			<path style="opacity:0.5;fill:#875C50;" d="M276.144,340.909c0,0-0.452,3.825-2.804,6.993
				c-4.924-2.931-12.079-7.352-16.614-10.875c-7.476-5.809-7.09-11.857-7.09-11.857L276.144,340.909z"/>
			<path style="fill:#FAB29A;" d="M450.446,228.411l-64.046,23.431l-26.021,9.517c-0.184,0.217-0.372,0.431-0.559,0.645
				c-4.873,5.552-10.844,10.122-15.132,13.054c-3.325,2.281-5.635,3.573-5.635,3.573l-1.803-2.313
				c-1.819-2.334-4.056-4.311-6.594-5.829l-10.863-6.512l-20.57-12.333l-3.83-2.296l-2.458-1.472l-43.609-26.142
				c-1.61-0.965-3.51-1.275-5.321-0.895c-0.301,0.063-0.596,0.146-0.892,0.246l-12.551,4.332l-0.717,0.247
				c-0.245,0.084-0.486,0.182-0.718,0.294c-0.797,0.369-1.518,0.882-2.133,1.505c-0.367,0.371-0.697,0.786-0.979,1.233
				c-9.605,15.173-19.606,19.916-27.115,20.814c-0.945,0.116-1.849,0.17-2.707,0.174c-1.966,0.008-3.696-0.229-5.121-0.56
				c-3.084-0.715-4.79-4.028-3.615-6.969l13.639-29.835c1.193-2.984,3.393-5.453,6.217-6.98l36.992-20.01
				c2.418-1.309,5.175-1.862,7.911-1.587l63.942,6.437l19.854-7.338l25.901-9.568l59.616-22.031l24.317,64.897L450.446,228.411z"/>
			<polygon style="fill:#FFFFFF;" points="160.444,195.801 121.349,281.066 94.259,268.765 66.776,256.289 112.823,172.865 
				131.961,182.083 			"/>
			<path style="opacity:0.5;fill:#875C50;" d="M247.717,347.128c-3.013-1.628-6.231-3.619-9.951-5.892
				c-10.929-6.685-53.453-27.672-53.453-27.672s-7.868-6.503-16.84-13.769c4.039,0.124,12.139,1.571,20.474,9.995l11.078-5.259
				c0,0,12.09,0.994,16.715,16.936l11.41-5.082c0,0,8.142,3.918,9.379,14.385c0,0,9.169,3.273,10.699,9.035
				C248.036,342.849,247.965,345.398,247.717,347.128z"/>
			<path style="fill:#FAB29A;" d="M176.095,319.361c-1.729,0.233-3.715-0.021-5.816-0.996c-6.803-3.153-13.202-15.527-8.098-19.144
				c0,0,2.732-2.745,9.818,1.513c4.161,2.497,6.867,4.904,8.463,7.293c1.123,1.676,1.698,3.344,1.849,5.027
				C182.559,315.871,179.966,318.838,176.095,319.361z"/>
			<path style="opacity:0.5;fill:#CC8A79;" d="M176.095,319.361c1.089-4.36,3.136-8.846,4.367-11.334
				c1.123,1.676,1.698,3.344,1.849,5.027C182.559,315.871,179.966,318.838,176.095,319.361z"/>
			<path style="fill:#FAB29A;" d="M187.548,335.667c-6.1-1.296-9.87-7.473-8.434-13.542c0.921-3.89,2.621-9.169,5.678-13.933
				c6.041-9.412,23.704-5.429,21.939,10.343l-6.801,15.302C199.931,333.837,193.769,336.988,187.548,335.667z"/>
			<path style="fill:#FAB29A;" d="M228.899,328.773l-8.194,17.059c-0.457,0.213-8.51,2.978-15.322-1.864
				c-0.446-0.318-0.855-0.635-1.233-0.958c-5.319-4.507-4.219-9.172-4.219-9.172l6.801-15.302c0,0,4.88-9.348,13.347-7.181
				c0.174,0.042,0.351,0.09,0.528,0.145C229.397,314.2,231.09,322.322,228.899,328.773z"/>
			<path style="fill:#FAB29A;" d="M244.078,338.038c-0.886,4.46-4.628,15.864-4.628,15.864c-1.554,1.473-4.121,3.088-11.121,0.546
				c-1.383-0.501-2.521-1.144-3.448-1.848c-3.774-2.86-4.176-6.768-4.176-6.768l6.716-13.985c2.997-2.576,5.853-3.156,8.327-2.657
				C240.953,330.241,244.474,336.053,244.078,338.038z"/>
			<path style="opacity:0.5;fill:#CC8A79;" d="M220.079,311.354c-2.41,1.787-6.894,5.986-9.939,14.084
				c-2.274,6.048-4.442,12.652-5.99,17.572c-5.319-4.507-4.219-9.172-4.219-9.172l6.801-15.302
				C206.732,318.535,211.611,309.187,220.079,311.354z"/>
			<path style="opacity:0.5;fill:#CC8A79;" d="M235.747,329.191c-1.609,1.391-3.995,4.296-6.236,10.224
				c-1.872,4.958-3.474,9.661-4.631,13.185c-3.774-2.86-4.176-6.768-4.176-6.768l6.716-13.985
				C230.417,329.272,233.273,328.691,235.747,329.191z"/>
			<path style="opacity:0.5;fill:#CC8A79;" d="M445.848,216.139c-47.115,15.904-101.58,34.581-106.455,37.555
				c-4.203,2.564-8.488,3.951-11.804,4.703c-5.098-3.248-11.617-7.356-18.743-11.809c11.887-9.391,10.844-24.567,10.844-24.567
				c-3.664,11.643-9.667,18.115-15.434,21.705c-25.169-15.671-55.389-34.049-57.609-34.109c-3.7-0.098-19.605,5.077-19.605,5.077
				s-0.988,16.028-14.036,26.004c-5.517,4.219-10.337,6.999-14.104,8.811c7.509-0.898,17.51-5.64,27.115-20.814
				c0.281-0.447,0.612-0.862,0.979-1.233c0.138-0.14,0.283-0.272,0.432-0.401c0.032-0.027,0.063-0.055,0.096-0.081
				c0.149-0.125,0.303-0.245,0.461-0.358c0.014-0.01,0.028-0.019,0.042-0.028c0.152-0.106,0.308-0.206,0.468-0.3
				c0.029-0.017,0.058-0.035,0.087-0.051c0.178-0.102,0.361-0.198,0.548-0.285c0.111-0.053,0.224-0.103,0.338-0.15
				c0.125-0.051,0.251-0.099,0.38-0.144l0.717-0.247l12.551-4.332c0.141-0.048,0.283-0.091,0.424-0.131
				c0.038-0.011,0.077-0.019,0.116-0.029c0.099-0.026,0.199-0.051,0.299-0.073c1.827-0.396,3.749-0.09,5.373,0.883l43.609,26.142
				l6.288,3.768l20.57,12.332l0,0.001l10.863,6.512c2.538,1.518,4.774,3.496,6.594,5.829l1.803,2.313c0,0,2.31-1.292,5.635-3.573
				c4.453-3.046,10.72-7.857,15.691-13.699l90.066-32.948L445.848,216.139z"/>
			<path style="opacity:0.5;fill:#CC8A79;" d="M386.401,251.842l-26.021,9.517c-0.184,0.217-0.372,0.431-0.559,0.645l-23.807-79.164
				l25.901-9.568L386.401,251.842z"/>
			<polygon style="fill:#FFFFFF;" points="429.43,246.701 402.808,255.788 372.708,266.062 342.078,177.404 372.066,166.403 
				391.701,159.201 			"/>
			<polygon style="fill:#B3B3B3;" points="429.43,246.701 402.808,255.788 372.066,166.403 391.701,159.201 			"/>
			<polygon points="500,107.71 500,246.24 426.02,280.29 414.33,251.86 410.67,242.96 405.31,229.91 396.71,208.99 394.53,203.68 
				379.37,166.82 378.26,164.13 376.71,160.35 434.31,139.16 			"/>
			<polygon style="fill:#B3B3B3;" points="131.961,182.083 94.259,268.765 66.776,256.289 112.823,172.865 			"/>
			<polygon points="127.63,175.47 125.72,179.07 123.04,184.13 105.69,216.86 103.01,221.93 85.94,254.13 81.3,262.88 66.9,290.05 
				18.08,261.54 6.56,254.81 0,250.98 0,105.03 72.36,148.78 			"/>
			<path style="fill:#333333;" d="M26.505,251.942c-0.275,5.661-5.087,10.027-10.748,9.751c-5.661-0.275-10.027-5.087-9.751-10.748
				s5.087-10.027,10.748-9.751C22.414,241.47,26.78,246.282,26.505,251.942z"/>
		</g>
		<path style="fill:#FFFFFF;" d="M184.58,170.667c-8.991,1.798-10.449,3.255-12.247,12.247c-1.798-8.991-3.255-10.449-12.247-12.247
			c8.991-1.798,10.449-3.256,12.247-12.247C174.131,167.411,175.589,168.869,184.58,170.667z"/>
		<path style="fill:#FFFFFF;" d="M205.747,180.5c-4.953,0.99-5.756,1.793-6.747,6.747c-0.99-4.953-1.793-5.756-6.747-6.747
			c4.953-0.99,5.756-1.793,6.747-6.747C199.99,178.707,200.793,179.51,205.747,180.5z"/>
		<path style="fill:#FFFFFF;" d="M376.747,295c-4.953,0.991-5.756,1.793-6.747,6.747c-0.991-4.953-1.793-5.756-6.747-6.747
			c4.953-0.991,5.756-1.793,6.747-6.747C370.991,293.207,371.793,294.009,376.747,295z"/>
		<path style="fill:#FFFFFF;" d="M341.747,158c-3.852,0.77-4.476,1.395-5.247,5.247c-0.77-3.852-1.395-4.476-5.247-5.247
			c3.852-0.77,4.476-1.395,5.247-5.247C337.27,156.605,337.895,157.23,341.747,158z"/>
		<path style="fill:#FFFFFF;" d="M228.247,390.747c-4.586,0.917-5.33,1.66-6.247,6.247c-0.917-4.586-1.661-5.33-6.247-6.247
			c4.586-0.917,5.33-1.66,6.247-6.247C222.917,389.086,223.661,389.83,228.247,390.747z"/>
		<path style="fill:#FFFFFF;" d="M267.247,393.247c-8.991,1.798-10.449,3.255-12.247,12.247
			c-1.798-8.991-3.255-10.449-12.247-12.247c8.991-1.798,10.449-3.255,12.247-12.247
			C256.798,389.991,258.255,391.449,267.247,393.247z"/>
		<path style="fill:#FFFFFF;" d="M146.747,315c-7.156,1.431-8.316,2.591-9.747,9.747c-1.431-7.156-2.591-8.316-9.747-9.747
			c7.156-1.431,8.316-2.591,9.747-9.747C138.431,312.409,139.591,313.569,146.747,315z"/>
		<path style="fill:#FFFFFF;" d="M322.58,166.167c-7.156,1.431-8.316,2.591-9.747,9.747c-1.431-7.156-2.591-8.316-9.747-9.747
			c7.156-1.431,8.316-2.591,9.747-9.747C314.264,163.576,315.424,164.736,322.58,166.167z"/>
		<path style="fill:#FFFFFF;" d="M370.58,323.667c-10.46,2.092-12.155,3.787-14.247,14.247c-2.091-10.46-3.787-12.155-14.247-14.247
			c10.46-2.092,12.155-3.787,14.247-14.247C358.425,319.88,360.12,321.575,370.58,323.667z"/>
		<path style="fill:#FFFFFF;" d="M264.913,146c-11.683,2.336-13.577,4.23-15.913,15.913c-2.336-11.683-4.23-13.577-15.913-15.913
			c11.683-2.336,13.577-4.23,15.913-15.913C251.336,141.77,253.23,143.664,264.913,146z"/>
	</g>
</g>
<g id="DESIGNED_BY_FREEPIK">
	<g>
		<g>
			<path style="fill:#29ABE2;" d="M180.308,483.929v-0.161c-0.218,0.249-0.432,0.452-0.644,0.608
				c-0.212,0.157-0.441,0.276-0.689,0.356c-0.247,0.082-0.517,0.122-0.81,0.122c-0.388,0-0.747-0.082-1.078-0.246
				c-0.33-0.164-0.616-0.399-0.857-0.704c-0.242-0.305-0.425-0.662-0.549-1.074c-0.125-0.412-0.187-0.857-0.187-1.335
				c0-1.013,0.248-1.804,0.742-2.369c0.495-0.565,1.146-0.848,1.953-0.848c0.467,0,0.861,0.081,1.181,0.24
				c0.321,0.161,0.633,0.408,0.938,0.739v-2.392c0-0.333,0.066-0.583,0.199-0.754c0.132-0.17,0.321-0.255,0.567-0.255
				c0.245,0,0.434,0.078,0.567,0.234c0.133,0.157,0.199,0.386,0.199,0.691v7.147c0,0.309-0.071,0.54-0.214,0.695
				c-0.143,0.154-0.326,0.231-0.552,0.231c-0.221,0-0.405-0.08-0.549-0.24C180.38,484.454,180.308,484.226,180.308,483.929z
				 M177.12,481.549c0,0.44,0.068,0.813,0.205,1.122c0.137,0.309,0.324,0.541,0.561,0.697c0.238,0.157,0.497,0.236,0.778,0.236
				c0.285,0,0.545-0.074,0.781-0.223c0.235-0.148,0.423-0.376,0.564-0.682c0.141-0.307,0.21-0.691,0.21-1.149
				c0-0.432-0.07-0.803-0.21-1.114c-0.14-0.31-0.33-0.548-0.57-0.712c-0.24-0.163-0.502-0.245-0.786-0.245
				c-0.297,0-0.562,0.084-0.796,0.252c-0.233,0.168-0.414,0.409-0.543,0.724C177.184,480.768,177.12,481.133,177.12,481.549z"/>
			<path style="fill:#29ABE2;" d="M187.454,481.959h-3.169c0.004,0.367,0.078,0.692,0.223,0.973
				c0.144,0.281,0.336,0.493,0.576,0.635c0.24,0.143,0.504,0.213,0.793,0.213c0.194,0,0.371-0.022,0.531-0.067
				c0.161-0.046,0.316-0.117,0.466-0.214c0.15-0.096,0.289-0.201,0.415-0.312c0.126-0.111,0.29-0.262,0.493-0.452
				c0.083-0.071,0.202-0.107,0.357-0.107c0.166,0,0.3,0.046,0.403,0.137c0.103,0.092,0.155,0.219,0.155,0.386
				c0,0.146-0.058,0.317-0.172,0.513c-0.116,0.196-0.289,0.384-0.52,0.564c-0.232,0.18-0.522,0.329-0.873,0.448
				c-0.35,0.119-0.753,0.178-1.208,0.178c-1.04,0-1.85-0.297-2.428-0.891c-0.578-0.593-0.866-1.399-0.866-2.416
				c0-0.479,0.071-0.923,0.213-1.332c0.143-0.41,0.351-0.761,0.623-1.054c0.273-0.293,0.609-0.517,1.009-0.674
				c0.4-0.156,0.843-0.234,1.33-0.234c0.633,0,1.176,0.133,1.629,0.4c0.454,0.267,0.794,0.612,1.019,1.035
				c0.225,0.424,0.339,0.856,0.339,1.294c0,0.408-0.117,0.672-0.35,0.794C188.206,481.898,187.878,481.959,187.454,481.959z
				 M184.284,481.039h2.938c-0.039-0.554-0.189-0.969-0.448-1.244c-0.259-0.275-0.6-0.412-1.024-0.412
				c-0.404,0-0.735,0.139-0.994,0.418C184.497,480.079,184.34,480.492,184.284,481.039z"/>
			<path style="fill:#29ABE2;" d="M194.838,482.735c0,0.447-0.108,0.831-0.327,1.149c-0.217,0.319-0.539,0.56-0.965,0.724
				c-0.425,0.164-0.943,0.246-1.552,0.246c-0.582,0-1.08-0.089-1.496-0.267c-0.415-0.178-0.722-0.401-0.92-0.667
				c-0.198-0.268-0.297-0.535-0.297-0.805c0-0.178,0.063-0.33,0.19-0.457c0.126-0.126,0.287-0.19,0.481-0.19
				c0.17,0,0.3,0.042,0.391,0.124c0.091,0.083,0.179,0.2,0.261,0.35c0.166,0.29,0.366,0.504,0.597,0.648
				c0.231,0.142,0.547,0.214,0.947,0.214c0.324,0,0.59-0.073,0.798-0.217c0.208-0.145,0.311-0.31,0.311-0.496
				c0-0.285-0.107-0.492-0.324-0.622c-0.216-0.131-0.571-0.256-1.066-0.375c-0.558-0.138-1.012-0.284-1.362-0.436
				c-0.35-0.151-0.63-0.353-0.84-0.602c-0.21-0.25-0.315-0.557-0.315-0.92c0-0.324,0.097-0.631,0.291-0.92
				c0.194-0.288,0.48-0.519,0.858-0.691c0.377-0.173,0.833-0.259,1.368-0.259c0.419,0,0.797,0.043,1.131,0.131
				c0.335,0.086,0.614,0.204,0.837,0.35c0.224,0.146,0.394,0.308,0.51,0.486c0.117,0.178,0.175,0.352,0.175,0.523
				c0,0.186-0.062,0.338-0.187,0.457c-0.124,0.118-0.301,0.178-0.532,0.178c-0.166,0-0.308-0.048-0.424-0.143
				c-0.117-0.095-0.25-0.237-0.401-0.427c-0.123-0.158-0.266-0.285-0.433-0.38c-0.166-0.095-0.392-0.142-0.677-0.142
				c-0.293,0-0.536,0.062-0.73,0.187c-0.194,0.124-0.291,0.279-0.291,0.465c0,0.171,0.071,0.31,0.213,0.419
				c0.143,0.109,0.334,0.2,0.576,0.27c0.241,0.071,0.573,0.158,0.997,0.261c0.502,0.123,0.913,0.27,1.232,0.439
				c0.318,0.17,0.56,0.371,0.725,0.603C194.756,482.175,194.838,482.439,194.838,482.735z"/>
			<path style="fill:#29ABE2;" d="M196.494,477.513c-0.226,0-0.418-0.07-0.579-0.208c-0.16-0.138-0.24-0.334-0.24-0.588
				c0-0.23,0.082-0.418,0.246-0.567c0.164-0.149,0.356-0.223,0.573-0.223c0.21,0,0.396,0.067,0.558,0.202
				c0.162,0.135,0.244,0.33,0.244,0.588c0,0.25-0.08,0.444-0.238,0.585C196.899,477.442,196.711,477.513,196.494,477.513z
				 M197.295,479.186v4.683c0,0.325-0.077,0.571-0.232,0.737c-0.155,0.166-0.35,0.249-0.588,0.249c-0.238,0-0.431-0.085-0.579-0.255
				c-0.149-0.17-0.222-0.414-0.222-0.731v-4.636c0-0.32,0.074-0.561,0.222-0.724c0.148-0.162,0.341-0.243,0.579-0.243
				c0.238,0,0.433,0.081,0.588,0.243C197.218,478.672,197.295,478.897,197.295,479.186z"/>
			<path style="fill:#29ABE2;" d="M204.395,479.453v4.707c0,0.538-0.058,1.002-0.173,1.39c-0.114,0.387-0.298,0.708-0.552,0.961
				c-0.253,0.253-0.585,0.441-0.994,0.563c-0.41,0.123-0.919,0.184-1.529,0.184c-0.558,0-1.057-0.078-1.496-0.234
				c-0.439-0.157-0.777-0.358-1.015-0.605c-0.237-0.247-0.356-0.502-0.356-0.763c0-0.198,0.067-0.359,0.202-0.483
				c0.134-0.125,0.297-0.187,0.486-0.187c0.238,0,0.445,0.105,0.624,0.314c0.087,0.107,0.177,0.216,0.27,0.324
				c0.093,0.109,0.197,0.202,0.309,0.279c0.113,0.076,0.248,0.134,0.406,0.172c0.158,0.037,0.341,0.056,0.546,0.056
				c0.42,0,0.745-0.058,0.977-0.175c0.232-0.116,0.394-0.28,0.487-0.49c0.093-0.209,0.147-0.433,0.163-0.673
				c0.016-0.24,0.027-0.624,0.035-1.155c-0.25,0.349-0.537,0.615-0.864,0.797c-0.326,0.182-0.715,0.273-1.166,0.273
				c-0.542,0-1.016-0.139-1.422-0.416c-0.405-0.277-0.717-0.665-0.934-1.163c-0.218-0.499-0.326-1.074-0.326-1.727
				c0-0.487,0.066-0.927,0.198-1.318c0.133-0.393,0.322-0.723,0.567-0.992c0.245-0.269,0.528-0.472,0.849-0.609
				c0.32-0.136,0.673-0.204,1.057-0.204c0.459,0,0.857,0.089,1.193,0.264c0.336,0.177,0.649,0.453,0.938,0.829v-0.22
				c0-0.281,0.069-0.498,0.208-0.653c0.139-0.154,0.317-0.231,0.535-0.231c0.313,0,0.52,0.103,0.623,0.306
				C204.343,478.775,204.395,479.07,204.395,479.453z M199.699,481.507c0,0.657,0.143,1.154,0.43,1.49
				c0.287,0.337,0.658,0.505,1.113,0.505c0.269,0,0.523-0.073,0.762-0.217c0.24-0.145,0.435-0.363,0.585-0.653
				c0.15-0.291,0.226-0.644,0.226-1.06c0-0.66-0.145-1.176-0.436-1.543c-0.291-0.368-0.674-0.552-1.149-0.552
				c-0.463,0-0.834,0.176-1.113,0.529C199.838,480.357,199.699,480.858,199.699,481.507z"/>
			<path style="fill:#29ABE2;" d="M206.97,479.162v0.196c0.285-0.376,0.596-0.652,0.935-0.828c0.338-0.176,0.727-0.264,1.166-0.264
				c0.427,0,0.809,0.093,1.146,0.28c0.336,0.186,0.588,0.449,0.754,0.789c0.107,0.198,0.176,0.413,0.208,0.642
				c0.032,0.23,0.048,0.522,0.048,0.879v3.015c0,0.325-0.074,0.571-0.223,0.737c-0.148,0.166-0.341,0.249-0.579,0.249
				c-0.242,0-0.437-0.085-0.588-0.255c-0.151-0.17-0.225-0.414-0.225-0.731v-2.701c0-0.534-0.075-0.943-0.223-1.226
				c-0.149-0.283-0.444-0.425-0.888-0.425c-0.288,0-0.552,0.086-0.789,0.258c-0.237,0.173-0.412,0.41-0.522,0.71
				c-0.079,0.242-0.119,0.692-0.119,1.353v2.03c0,0.328-0.077,0.576-0.228,0.74c-0.152,0.164-0.349,0.246-0.59,0.246
				c-0.234,0-0.426-0.085-0.576-0.255c-0.15-0.17-0.226-0.414-0.226-0.731v-4.683c0-0.309,0.067-0.539,0.202-0.692
				c0.135-0.152,0.319-0.228,0.552-0.228c0.143,0,0.272,0.034,0.387,0.101c0.114,0.068,0.207,0.168,0.276,0.302
				C206.935,478.804,206.97,478.969,206.97,479.162z"/>
			<path style="fill:#29ABE2;" d="M216.829,481.959h-3.17c0.004,0.367,0.078,0.692,0.223,0.973c0.144,0.281,0.336,0.493,0.576,0.635
				c0.239,0.143,0.503,0.213,0.792,0.213c0.194,0,0.371-0.022,0.532-0.067c0.16-0.046,0.315-0.117,0.466-0.214
				c0.15-0.096,0.288-0.201,0.416-0.312c0.126-0.111,0.29-0.262,0.492-0.452c0.083-0.071,0.202-0.107,0.356-0.107
				c0.166,0,0.301,0.046,0.404,0.137c0.103,0.092,0.154,0.219,0.154,0.386c0,0.146-0.057,0.317-0.172,0.513
				c-0.115,0.196-0.288,0.384-0.52,0.564c-0.232,0.18-0.522,0.329-0.872,0.448c-0.35,0.119-0.753,0.178-1.208,0.178
				c-1.041,0-1.85-0.297-2.428-0.891c-0.577-0.593-0.866-1.399-0.866-2.416c0-0.479,0.071-0.923,0.214-1.332
				c0.143-0.41,0.351-0.761,0.624-1.054c0.273-0.293,0.609-0.517,1.009-0.674c0.4-0.156,0.843-0.234,1.33-0.234
				c0.633,0,1.176,0.133,1.629,0.4c0.453,0.267,0.793,0.612,1.019,1.035c0.225,0.424,0.338,0.856,0.338,1.294
				c0,0.408-0.117,0.672-0.35,0.794C217.581,481.898,217.253,481.959,216.829,481.959z M213.659,481.039h2.938
				c-0.039-0.554-0.189-0.969-0.448-1.244c-0.259-0.275-0.6-0.412-1.024-0.412c-0.404,0-0.736,0.139-0.995,0.418
				C213.872,480.079,213.715,480.492,213.659,481.039z"/>
			<path style="fill:#29ABE2;" d="M223.435,483.929v-0.161c-0.218,0.249-0.432,0.452-0.644,0.608
				c-0.212,0.157-0.441,0.276-0.688,0.356c-0.247,0.082-0.517,0.122-0.81,0.122c-0.388,0-0.747-0.082-1.077-0.246
				c-0.33-0.164-0.617-0.399-0.858-0.704c-0.242-0.305-0.424-0.662-0.549-1.074c-0.125-0.412-0.187-0.857-0.187-1.335
				c0-1.013,0.247-1.804,0.742-2.369c0.495-0.565,1.146-0.848,1.953-0.848c0.467,0,0.861,0.081,1.181,0.24
				c0.32,0.161,0.633,0.408,0.938,0.739v-2.392c0-0.333,0.066-0.583,0.199-0.754c0.132-0.17,0.322-0.255,0.567-0.255
				c0.245,0,0.434,0.078,0.567,0.234c0.133,0.157,0.199,0.386,0.199,0.691v7.147c0,0.309-0.071,0.54-0.214,0.695
				c-0.143,0.154-0.326,0.231-0.552,0.231c-0.222,0-0.405-0.08-0.549-0.24C223.507,484.454,223.435,484.226,223.435,483.929z
				 M220.248,481.549c0,0.44,0.068,0.813,0.204,1.122c0.136,0.309,0.324,0.541,0.561,0.697c0.237,0.157,0.496,0.236,0.777,0.236
				c0.285,0,0.546-0.074,0.781-0.223c0.236-0.148,0.424-0.376,0.564-0.682c0.141-0.307,0.211-0.691,0.211-1.149
				c0-0.432-0.07-0.803-0.211-1.114c-0.14-0.31-0.33-0.548-0.57-0.712c-0.24-0.163-0.502-0.245-0.787-0.245
				c-0.296,0-0.562,0.084-0.795,0.252c-0.233,0.168-0.414,0.409-0.543,0.724C220.312,480.768,220.248,481.133,220.248,481.549z"/>
			<path style="fill:#29ABE2;" d="M230.059,476.782v2.475c0.305-0.316,0.615-0.559,0.932-0.727c0.316-0.168,0.709-0.252,1.176-0.252
				c0.538,0,1.01,0.128,1.416,0.382c0.405,0.256,0.72,0.626,0.944,1.111c0.223,0.484,0.336,1.06,0.336,1.725
				c0,0.491-0.063,0.94-0.187,1.35c-0.125,0.41-0.306,0.765-0.543,1.065c-0.238,0.301-0.525,0.534-0.864,0.698
				c-0.339,0.164-0.712,0.246-1.119,0.246c-0.25,0-0.484-0.029-0.703-0.089c-0.22-0.059-0.407-0.137-0.561-0.234
				c-0.154-0.096-0.286-0.196-0.395-0.3c-0.109-0.103-0.253-0.258-0.431-0.463v0.161c0,0.305-0.073,0.535-0.22,0.692
				c-0.146,0.156-0.332,0.234-0.558,0.234c-0.23,0-0.413-0.078-0.549-0.234c-0.137-0.157-0.205-0.388-0.205-0.692v-7.077
				c0-0.328,0.066-0.577,0.198-0.745c0.133-0.168,0.318-0.252,0.555-0.252c0.25,0,0.441,0.08,0.576,0.24
				C229.992,476.257,230.059,476.485,230.059,476.782z M230.136,481.596c0,0.645,0.148,1.14,0.442,1.486
				c0.295,0.347,0.682,0.521,1.161,0.521c0.407,0,0.759-0.177,1.053-0.532c0.295-0.355,0.442-0.862,0.442-1.523
				c0-0.427-0.061-0.796-0.184-1.104c-0.123-0.309-0.297-0.548-0.522-0.715c-0.226-0.168-0.489-0.252-0.79-0.252
				c-0.309,0-0.584,0.084-0.825,0.252c-0.242,0.168-0.431,0.411-0.57,0.73C230.205,480.777,230.136,481.157,230.136,481.596z"/>
			<path style="fill:#29ABE2;" d="M236.963,485.057l0.148-0.362l-1.995-5.022c-0.122-0.288-0.184-0.499-0.184-0.629
				c0-0.139,0.036-0.267,0.107-0.385c0.071-0.119,0.169-0.214,0.294-0.285c0.125-0.072,0.255-0.107,0.389-0.107
				c0.233,0,0.409,0.075,0.529,0.223c0.119,0.148,0.223,0.361,0.314,0.638l1.371,3.989l1.3-3.71c0.102-0.3,0.196-0.536,0.279-0.706
				c0.083-0.17,0.171-0.285,0.264-0.344c0.093-0.06,0.225-0.09,0.395-0.09c0.123,0,0.24,0.032,0.353,0.098
				c0.113,0.065,0.199,0.153,0.261,0.264c0.061,0.111,0.092,0.227,0.092,0.35c-0.016,0.075-0.041,0.182-0.077,0.321
				c-0.036,0.138-0.079,0.28-0.13,0.421l-2.113,5.533c-0.182,0.487-0.36,0.868-0.535,1.145c-0.174,0.277-0.404,0.491-0.691,0.638
				c-0.287,0.149-0.674,0.223-1.161,0.223c-0.475,0-0.831-0.051-1.068-0.154c-0.238-0.104-0.356-0.292-0.356-0.565
				c0-0.186,0.056-0.33,0.169-0.43c0.112-0.101,0.28-0.152,0.501-0.152c0.087,0,0.173,0.012,0.256,0.037
				c0.103,0.023,0.192,0.035,0.267,0.035c0.186,0,0.333-0.027,0.44-0.084c0.106-0.055,0.202-0.151,0.288-0.288
				C236.754,485.523,236.852,485.322,236.963,485.057z"/>
		</g>
		<g>
			<path style="fill:#29ABE2;" d="M260.439,478.406h0.386v-0.487c0-0.509,0.062-0.911,0.192-1.211
				c0.128-0.299,0.347-0.516,0.654-0.653c0.306-0.135,0.727-0.204,1.26-0.204c0.95,0,1.42,0.229,1.42,0.696
				c0,0.149-0.049,0.278-0.15,0.385c-0.096,0.106-0.214,0.16-0.349,0.16c-0.062,0-0.174-0.012-0.33-0.037
				c-0.148-0.021-0.283-0.035-0.389-0.035c-0.292,0-0.479,0.088-0.566,0.259c-0.079,0.172-0.122,0.418-0.122,0.74v0.386h0.396
				c0.619,0,0.926,0.186,0.926,0.56c0,0.262-0.079,0.432-0.245,0.503c-0.164,0.071-0.39,0.107-0.68,0.107h-0.396v4.294
				c0,0.319-0.075,0.563-0.231,0.73c-0.151,0.17-0.346,0.254-0.589,0.254c-0.23,0-0.419-0.084-0.574-0.254
				c-0.153-0.167-0.228-0.411-0.228-0.73v-4.294h-0.446c-0.243,0-0.427-0.052-0.559-0.164c-0.131-0.107-0.197-0.25-0.197-0.423
				C259.625,478.598,259.896,478.406,260.439,478.406"/>
			<path style="fill:#29ABE2;" d="M265.745,482.515v1.355c0,0.327-0.083,0.574-0.234,0.737c-0.154,0.166-0.349,0.247-0.586,0.247
				c-0.239,0-0.43-0.082-0.579-0.25c-0.148-0.165-0.225-0.41-0.225-0.734v-4.514c0-0.729,0.262-1.093,0.788-1.093
				c0.271,0,0.465,0.084,0.583,0.255c0.118,0.171,0.184,0.421,0.198,0.755c0.192-0.334,0.39-0.584,0.593-0.755
				c0.208-0.171,0.477-0.255,0.818-0.255c0.343,0,0.67,0.084,0.991,0.255c0.322,0.171,0.482,0.398,0.482,0.678
				c0,0.197-0.069,0.363-0.204,0.488c-0.137,0.131-0.284,0.195-0.441,0.195c-0.062,0-0.207-0.039-0.433-0.112
				c-0.228-0.071-0.43-0.108-0.602-0.108c-0.237,0-0.433,0.064-0.582,0.186c-0.151,0.128-0.269,0.311-0.353,0.554
				c-0.081,0.247-0.137,0.541-0.17,0.878C265.759,481.615,265.745,482.029,265.745,482.515"/>
			<path style="fill:#29ABE2;" d="M273.196,481.957h-3.171c0.006,0.367,0.078,0.694,0.222,0.974
				c0.147,0.279,0.337,0.491,0.578,0.635c0.241,0.142,0.502,0.212,0.793,0.212c0.194,0,0.37-0.021,0.531-0.07
				c0.159-0.043,0.316-0.116,0.466-0.213c0.151-0.095,0.287-0.199,0.415-0.313c0.126-0.109,0.292-0.26,0.494-0.449
				c0.084-0.071,0.203-0.109,0.355-0.109c0.168,0,0.301,0.046,0.406,0.138c0.104,0.092,0.152,0.219,0.152,0.386
				c0,0.147-0.056,0.317-0.167,0.512c-0.117,0.198-0.289,0.385-0.522,0.566c-0.234,0.178-0.524,0.329-0.874,0.446
				c-0.35,0.119-0.754,0.179-1.207,0.179c-1.044,0-1.852-0.296-2.429-0.889c-0.577-0.595-0.87-1.401-0.87-2.418
				c0-0.479,0.073-0.924,0.217-1.334c0.14-0.411,0.349-0.76,0.624-1.055c0.272-0.294,0.606-0.518,1.008-0.674
				c0.398-0.156,0.842-0.234,1.33-0.234c0.632,0,1.175,0.134,1.629,0.403c0.452,0.264,0.796,0.61,1.018,1.034
				c0.226,0.426,0.339,0.855,0.339,1.296c0,0.405-0.118,0.669-0.351,0.791C273.947,481.897,273.619,481.957,273.196,481.957
				 M270.024,481.035h2.938c-0.039-0.553-0.186-0.969-0.446-1.241c-0.261-0.276-0.599-0.413-1.025-0.413
				c-0.404,0-0.736,0.137-0.995,0.418C270.237,480.078,270.079,480.49,270.024,481.035"/>
			<path style="fill:#29ABE2;" d="M279.938,481.957h-3.171c0.004,0.367,0.078,0.694,0.222,0.974
				c0.145,0.279,0.337,0.491,0.576,0.635c0.239,0.142,0.504,0.212,0.795,0.212c0.192,0,0.37-0.021,0.528-0.07
				c0.162-0.043,0.316-0.116,0.469-0.213c0.151-0.095,0.287-0.199,0.415-0.313c0.125-0.109,0.29-0.26,0.493-0.449
				c0.084-0.071,0.204-0.109,0.355-0.109c0.168,0,0.302,0.046,0.406,0.138c0.103,0.092,0.15,0.219,0.15,0.386
				c0,0.147-0.054,0.317-0.171,0.512c-0.111,0.198-0.284,0.385-0.519,0.566c-0.231,0.178-0.525,0.329-0.872,0.446
				c-0.349,0.119-0.755,0.179-1.209,0.179c-1.042,0-1.849-0.296-2.429-0.889c-0.577-0.595-0.868-1.401-0.868-2.418
				c0-0.479,0.073-0.924,0.217-1.334c0.142-0.411,0.349-0.76,0.622-1.055c0.272-0.294,0.608-0.518,1.009-0.674
				c0.399-0.156,0.844-0.234,1.331-0.234c0.63,0,1.174,0.134,1.633,0.403c0.45,0.264,0.791,0.61,1.013,1.034
				c0.225,0.426,0.341,0.855,0.341,1.296c0,0.405-0.12,0.669-0.351,0.791C280.688,481.897,280.36,481.957,279.938,481.957
				 M276.767,481.035h2.938c-0.04-0.553-0.19-0.969-0.447-1.241c-0.263-0.276-0.601-0.413-1.027-0.413
				c-0.403,0-0.735,0.137-0.995,0.418C276.978,480.078,276.819,480.49,276.767,481.035"/>
			<path style="fill:#29ABE2;" d="M283.487,479.174v0.194c0.304-0.375,0.621-0.651,0.953-0.828c0.324-0.178,0.699-0.267,1.114-0.267
				c0.497,0,0.96,0.13,1.379,0.386c0.419,0.259,0.749,0.635,0.993,1.129c0.243,0.497,0.366,1.081,0.366,1.759
				c0,0.497-0.07,0.957-0.21,1.376c-0.14,0.417-0.336,0.767-0.58,1.05c-0.246,0.281-0.535,0.501-0.868,0.654
				c-0.339,0.151-0.695,0.227-1.08,0.227c-0.461,0-0.853-0.093-1.166-0.28c-0.314-0.182-0.614-0.458-0.901-0.816v2.433
				c0,0.71-0.26,1.069-0.778,1.069c-0.306,0-0.505-0.092-0.607-0.275c-0.095-0.187-0.146-0.452-0.146-0.807v-6.996
				c0-0.309,0.066-0.537,0.2-0.692c0.134-0.15,0.32-0.228,0.553-0.228c0.231,0,0.416,0.078,0.56,0.234
				C283.417,478.655,283.487,478.878,283.487,479.174 M286.665,481.529c0-0.428-0.067-0.796-0.197-1.102
				c-0.131-0.308-0.312-0.542-0.541-0.705c-0.229-0.164-0.489-0.248-0.77-0.248c-0.446,0-0.824,0.178-1.13,0.527
				c-0.308,0.354-0.462,0.872-0.462,1.558c0,0.642,0.153,1.146,0.46,1.504c0.305,0.358,0.679,0.536,1.133,0.536
				c0.268,0,0.519-0.079,0.748-0.233c0.232-0.158,0.416-0.392,0.552-0.704C286.595,482.35,286.665,481.972,286.665,481.529"/>
			<path style="fill:#29ABE2;" d="M289.925,477.508c-0.227,0-0.418-0.071-0.577-0.209c-0.162-0.139-0.242-0.333-0.242-0.585
				c0-0.23,0.082-0.419,0.248-0.569c0.164-0.146,0.354-0.222,0.571-0.222c0.212,0,0.397,0.066,0.559,0.2
				c0.162,0.137,0.244,0.334,0.244,0.591c0,0.25-0.079,0.444-0.236,0.585C290.333,477.437,290.145,477.508,289.925,477.508
				 M290.728,479.182v4.689c0,0.322-0.078,0.568-0.231,0.732c-0.156,0.168-0.35,0.25-0.588,0.25c-0.238,0-0.428-0.084-0.58-0.254
				c-0.146-0.173-0.222-0.416-0.222-0.729v-4.642c0-0.319,0.076-0.559,0.222-0.722c0.152-0.165,0.342-0.245,0.58-0.245
				c0.238,0,0.432,0.079,0.588,0.245C290.65,478.67,290.728,478.896,290.728,479.182"/>
			<path style="fill:#29ABE2;" d="M295.952,484.114l-1.428-2.354l-0.88,0.83v1.291c0,0.312-0.083,0.551-0.248,0.718
				c-0.161,0.17-0.354,0.254-0.566,0.254c-0.249,0-0.447-0.082-0.588-0.25c-0.142-0.165-0.215-0.41-0.215-0.734v-6.915
				c0-0.358,0.071-0.632,0.207-0.821c0.139-0.19,0.341-0.283,0.596-0.283c0.25,0,0.446,0.086,0.593,0.257
				c0.146,0.169,0.221,0.421,0.221,0.751v3.933l1.822-1.914c0.226-0.235,0.396-0.4,0.517-0.486c0.118-0.087,0.262-0.13,0.431-0.13
				c0.204,0,0.371,0.065,0.51,0.193c0.132,0.129,0.2,0.291,0.2,0.483c0,0.237-0.221,0.555-0.659,0.951l-0.861,0.789l1.662,2.614
				c0.121,0.196,0.212,0.34,0.265,0.441c0.052,0.099,0.081,0.2,0.081,0.289c0,0.258-0.072,0.459-0.213,0.61
				c-0.14,0.148-0.327,0.221-0.554,0.221c-0.198,0-0.352-0.051-0.458-0.16C296.282,484.586,296.133,484.392,295.952,484.114"/>
			<path style="fill:#29ABE2;" d="M299.474,484.854c-0.245,0-0.455-0.079-0.634-0.238c-0.178-0.156-0.268-0.378-0.268-0.665
				c0-0.241,0.086-0.449,0.256-0.622c0.172-0.175,0.38-0.262,0.63-0.262c0.248,0,0.46,0.087,0.639,0.258
				c0.174,0.172,0.264,0.383,0.264,0.626c0,0.283-0.089,0.505-0.264,0.662C299.919,484.775,299.711,484.854,299.474,484.854"/>
			<path style="fill:#29ABE2;" d="M307.536,482.848c0,0.2-0.06,0.418-0.182,0.646c-0.12,0.231-0.305,0.449-0.554,0.656
				c-0.247,0.208-0.557,0.377-0.934,0.502c-0.375,0.126-0.8,0.192-1.269,0.192c-1.004,0-1.786-0.294-2.349-0.876
				c-0.56-0.585-0.841-1.368-0.841-2.35c0-0.667,0.128-1.254,0.387-1.765c0.254-0.509,0.627-0.905,1.113-1.183
				c0.487-0.28,1.072-0.419,1.746-0.419c0.421,0,0.805,0.061,1.158,0.184c0.35,0.122,0.645,0.282,0.891,0.474
				c0.242,0.197,0.428,0.402,0.556,0.62c0.129,0.22,0.192,0.426,0.192,0.617c0,0.192-0.071,0.357-0.214,0.492
				c-0.147,0.134-0.322,0.203-0.524,0.203c-0.137,0-0.248-0.035-0.338-0.104c-0.09-0.07-0.19-0.181-0.299-0.339
				c-0.198-0.299-0.404-0.526-0.622-0.674c-0.214-0.152-0.488-0.226-0.821-0.226c-0.476,0-0.865,0.186-1.158,0.561
				c-0.292,0.372-0.44,0.888-0.44,1.534c0,0.305,0.039,0.587,0.114,0.842c0.073,0.255,0.182,0.472,0.325,0.652
				c0.144,0.179,0.315,0.316,0.516,0.409c0.203,0.096,0.425,0.141,0.665,0.141c0.326,0,0.604-0.075,0.836-0.225
				c0.235-0.151,0.439-0.38,0.616-0.689c0.099-0.182,0.204-0.324,0.318-0.427c0.114-0.102,0.256-0.156,0.422-0.156
				c0.198,0,0.363,0.077,0.491,0.226C307.469,482.517,307.536,482.679,307.536,482.848"/>
			<path style="fill:#29ABE2;" d="M314.53,481.56c0,0.481-0.076,0.928-0.222,1.337c-0.154,0.408-0.37,0.758-0.656,1.049
				c-0.285,0.293-0.626,0.518-1.02,0.675c-0.4,0.154-0.844,0.234-1.337,0.234c-0.491,0-0.933-0.08-1.326-0.239
				c-0.389-0.156-0.732-0.384-1.016-0.676c-0.288-0.298-0.505-0.646-0.657-1.048c-0.143-0.402-0.219-0.847-0.219-1.332
				c0-0.491,0.078-0.941,0.224-1.349c0.151-0.409,0.368-0.758,0.649-1.046c0.282-0.289,0.621-0.511,1.019-0.669
				c0.402-0.156,0.844-0.234,1.326-0.234c0.49,0,0.936,0.078,1.337,0.239c0.399,0.157,0.739,0.384,1.027,0.674
				c0.286,0.297,0.502,0.643,0.65,1.045C314.455,480.628,314.53,481.071,314.53,481.56 M312.903,481.56
				c0-0.662-0.146-1.176-0.436-1.543c-0.289-0.372-0.681-0.555-1.171-0.555c-0.317,0-0.597,0.082-0.839,0.246
				c-0.242,0.164-0.426,0.406-0.556,0.727c-0.131,0.321-0.197,0.696-0.197,1.124c0,0.424,0.064,0.792,0.194,1.108
				c0.13,0.319,0.314,0.561,0.553,0.729c0.241,0.167,0.522,0.253,0.845,0.253c0.49,0,0.882-0.185,1.171-0.557
				C312.756,482.723,312.903,482.21,312.903,481.56"/>
			<path style="fill:#29ABE2;" d="M320.712,481.679v2.154c0,0.342-0.075,0.594-0.231,0.767c-0.156,0.17-0.357,0.255-0.611,0.255
				c-0.245,0-0.446-0.085-0.595-0.255c-0.155-0.173-0.233-0.425-0.233-0.767v-2.582c0-0.408-0.013-0.726-0.04-0.953
				c-0.029-0.221-0.105-0.41-0.227-0.552c-0.123-0.147-0.318-0.22-0.582-0.22c-0.532,0-0.88,0.181-1.048,0.551
				c-0.167,0.36-0.254,0.883-0.254,1.567v2.189c0,0.336-0.076,0.591-0.226,0.765c-0.156,0.171-0.355,0.258-0.603,0.258
				c-0.247,0-0.448-0.087-0.604-0.258c-0.157-0.173-0.235-0.428-0.235-0.765v-4.637c0-0.306,0.07-0.538,0.209-0.695
				c0.143-0.161,0.329-0.239,0.556-0.239c0.223,0,0.407,0.077,0.557,0.222c0.148,0.149,0.221,0.354,0.221,0.615v0.153
				c0.283-0.334,0.584-0.582,0.903-0.738c0.323-0.162,0.676-0.241,1.07-0.241c0.407,0,0.757,0.082,1.049,0.243
				c0.294,0.163,0.533,0.41,0.725,0.735c0.275-0.33,0.568-0.577,0.881-0.738c0.313-0.161,0.658-0.241,1.039-0.241
				c0.441,0,0.826,0.089,1.146,0.262c0.319,0.174,0.558,0.425,0.717,0.747c0.138,0.295,0.206,0.756,0.206,1.385v3.164
				c0,0.342-0.076,0.594-0.23,0.767c-0.154,0.17-0.359,0.255-0.612,0.255c-0.247,0-0.446-0.087-0.603-0.258
				c-0.156-0.173-0.235-0.428-0.235-0.765v-2.726c0-0.349-0.015-0.627-0.043-0.836c-0.029-0.211-0.11-0.388-0.239-0.529
				c-0.132-0.142-0.331-0.215-0.596-0.215c-0.214,0-0.416,0.066-0.609,0.192c-0.192,0.124-0.342,0.298-0.45,0.508
				C320.774,480.501,320.712,480.985,320.712,481.679"/>
		</g>
		<g>
			<path style="fill:#29ABE2;" d="M245.272,481.167c-0.001-0.003-0.001-0.006-0.001-0.011
				C245.271,481.161,245.271,481.164,245.272,481.167z"/>
			<path style="fill:#29ABE2;" d="M245.354,481.685c0.001,0,0.001,0,0.001,0c-0.031-0.148-0.055-0.294-0.074-0.439
				C245.3,481.393,245.324,481.54,245.354,481.685z"/>
			<path style="fill:#29ABE2;" d="M245.89,483.189c-0.004-0.006-0.007-0.013-0.011-0.021
				C245.883,483.176,245.886,483.183,245.89,483.189z"/>
			<path style="fill:#29ABE2;" d="M245.839,483.089c-0.014-0.027-0.027-0.056-0.041-0.084
				C245.811,483.035,245.825,483.062,245.839,483.089z"/>
			<path style="fill:#29ABE2;" d="M245.504,482.265c0.079,0.25,0.175,0.492,0.286,0.724c-0.113-0.236-0.206-0.479-0.284-0.724
				C245.506,482.265,245.505,482.265,245.504,482.265z"/>
			<path style="fill:#29ABE2;" d="M251.545,474.957c0.313,0,0.544,0.025,0.809,0.07l0.075-0.477c0,0-0.732-0.225-1.694-0.146
				l-0.076-0.259c0.299-0.063,0.524-0.329,0.524-0.646c0-0.364-0.296-0.658-0.661-0.658s-0.66,0.295-0.66,0.658
				c0,0.317,0.224,0.583,0.523,0.646l0.084,0.289c-1.021,0.14-1.834,0.539-1.834,0.539l0.144,0.441
				c0.618-0.206,1.154-0.331,1.64-0.383C250.895,474.979,251.253,474.957,251.545,474.957z"/>
			<path style="fill:#29ABE2;" d="M245.878,477.368l0.004-0.005c0.024-0.031,0.047-0.06,0.071-0.089l-0.196-0.141l-0.305-0.223
				c-0.017,0.024-0.497,0.465-0.876,1.28c-0.016-0.026-0.035-0.051-0.056-0.074c-0.113-0.124-0.272-0.187-0.474-0.184
				c-0.003,0-0.006,0-0.009,0c-0.125,0-0.211-0.042-0.267-0.092c0.056-0.071,0.089-0.16,0.089-0.258c0-0.23-0.187-0.418-0.418-0.418
				c-0.23,0-0.418,0.188-0.418,0.418c0,0.231,0.187,0.418,0.418,0.418c0.036,0,0.071-0.006,0.104-0.013
				c0.103,0.114,0.266,0.214,0.505,0.209c0.123-0.001,0.213,0.03,0.273,0.097c0.069,0.076,0.093,0.185,0.1,0.267
				c-0.001,0.001-0.001,0.003-0.002,0.003c-0.272,0.743-0.194,1.669-0.194,1.669l0.661,0.026c0.014-0.337,0.062-0.927,0.232-1.394
				C245.449,477.959,245.861,477.392,245.878,477.368z"/>
			<path style="fill:#29ABE2;" d="M257.295,475.509c-0.23,0-0.418,0.187-0.418,0.418c0,0.036,0.005,0.07,0.015,0.103
				c-0.115,0.104-0.214,0.267-0.21,0.507c0.002,0.123-0.03,0.212-0.096,0.273c-0.053,0.047-0.12,0.072-0.185,0.088
				c-0.492-0.689-1.097-1.11-1.097-1.11l-0.474,0.508c0.358,0.326,0.724,0.734,1.08,1.244c0.246,0.352,0.499,0.806,0.71,1.259
				l0.64-0.304c0,0-0.292-0.722-0.704-1.37c0.071-0.025,0.143-0.064,0.207-0.12c0.125-0.113,0.187-0.273,0.183-0.474
				c-0.001-0.13,0.042-0.218,0.093-0.276c0.071,0.054,0.16,0.089,0.258,0.089c0.232,0,0.419-0.187,0.419-0.418
				C257.714,475.696,257.527,475.509,257.295,475.509z"/>
			<path style="fill:#29ABE2;" d="M255.634,481.261c-0.881,0.429-2.33,0.996-4.238,1.262c-0.749,0.104-1.475,0.142-2.143,0.142
				c-0.869,0-1.637-0.065-2.227-0.139c-0.673-0.085-1.198-0.189-1.52-0.261c0.077,0.245,0.171,0.488,0.284,0.724
				c0.002,0.006,0.005,0.013,0.008,0.017c0.013,0.027,0.027,0.056,0.041,0.084c0.013,0.027,0.027,0.054,0.04,0.079
				c0.004,0.007,0.007,0.015,0.011,0.021c0.189,0.357,0.417,0.684,0.675,0.968c0.9,0.984,1.817,1.14,1.826,1.141l0.014,0.002
				l0.013,0.005c0.008,0.003,0.821,0.266,2.057,0.266c1.216,0,2.409-0.245,3.546-0.729c0.842-0.431,1.639-1.085,2.034-1.669
				c0.305-0.452,0.525-0.933,0.656-1.434c0.07-0.266,0.124-0.692,0.092-1.141C256.556,480.765,256.164,481.003,255.634,481.261z"/>
			<path style="fill:#29ABE2;" d="M246.161,477.577c-0.026,0.037-0.408,0.578-0.71,1.408c-0.226,0.622-0.216,1.527-0.216,1.538
				v0.002c0,0.212,0.012,0.423,0.035,0.632c0,0.005,0,0.008,0.001,0.011c0.002,0.027,0.007,0.052,0.009,0.079
				c0.019,0.145,0.043,0.291,0.074,0.439c0.438,0.111,3.049,0.72,5.968,0.314c1.829-0.255,3.218-0.795,4.062-1.204
				c0.701-0.34,1.151-0.648,1.325-0.774c-0.173-0.643-0.651-1.65-1.089-2.279c-1.253-1.791-2.604-2.25-3.298-2.365
				c-0.265-0.043-0.477-0.068-0.777-0.068c-0.28,0-0.626,0.023-1.089,0.071c-0.465,0.048-0.982,0.17-1.583,0.372
				c-0.842,0.282-1.605,0.724-2.204,1.28l-0.02,0.019C246.56,477.134,246.374,477.306,246.161,477.577z M253.829,477.16
				c0.601,0,1.089,0.488,1.089,1.09c0,0.601-0.489,1.09-1.089,1.09c-0.601,0-1.089-0.489-1.089-1.09
				C252.74,477.649,253.228,477.16,253.829,477.16z M248.678,477.117c0.973,0,1.761,0.789,1.761,1.761s-0.788,1.759-1.761,1.759
				c-0.972,0-1.76-0.787-1.76-1.759S247.707,477.117,248.678,477.117z"/>
		</g>
	</g>
</g>
</svg>
