<?xml version="1.0" encoding="utf-8"?>
<!-- Generator: Adobe Illustrator 23.0.5, SVG Export Plug-In . SVG Version: 6.00 Build 0)  -->
<svg version="1.1" id="Capa_1" xmlns="http://www.w3.org/2000/svg" xmlns:xlink="http://www.w3.org/1999/xlink" x="0px" y="0px"
	 viewBox="0 0 768 768" style="enable-background:new 0 0 768 768;" xml:space="preserve">
<style type="text/css">
	.st0{fill:#0075C9;}
	.st1{fill:#3C3C3B;}
</style>
<g>
	<g>
		<g>
			<polygon class="st0" points="452.4,247.8 452.4,345.3 403.8,345.3 403.8,296.4 354.9,296.4 354.9,247.8 			"/>
			<polygon class="st0" points="403.8,345.3 354.9,394.2 306.1,394.2 306.1,296.4 354.9,296.4 354.9,345.3 			"/>
		</g>
		<g>
			<path class="st1" d="M241.6,424.8h15.9c10.3,0,15.8,3.5,15.8,12.5c0,8.7-5.3,12.9-15.8,12.9H252v8.3h-10.4V424.8z M256.5,443.1
				c4.8,0,6.5-1,6.5-5.5s-1.5-5.7-6.5-5.7H252v11.2H256.5z"/>
			<path class="st1" d="M282.2,458.5h-10.1l12.7-33.6h12.6l12.5,33.6h-11l-2-6.3h-12.6L282.2,458.5z M292.5,438.7
				c-1-2.8-1.9-7.5-1.9-7.5s-0.9,4.6-1.9,7.5l-2.2,6.6h8L292.5,438.7z"/>
			<path class="st1" d="M313.6,424.8H324v26.3h15.5v7.4h-25.9V424.8z"/>
			<path class="st1" d="M351.5,458.5h-10.1l12.7-33.6h12.6l12.5,33.6h-11l-2-6.3h-12.6L351.5,458.5z M361.8,438.7
				c-1-2.8-1.9-7.5-1.9-7.5s-0.9,4.6-1.9,7.5l-2.2,6.6h8L361.8,438.7z"/>
			<path class="st1" d="M379.8,441.7c0-11.2,6-17.1,18.5-17.1c5.2,0,7.8,0.4,9.3,0.6v7.1c-1.3-0.2-3.8-0.4-8.2-0.4c-6.7,0-9,3-9,9.8
				s2.3,9.8,9,9.8c3.6,0,6.7-0.3,8.2-0.5v7.2c-1.4,0.2-4.9,0.6-9.4,0.6C385.9,458.8,379.8,452.9,379.8,441.7z"/>
			<path class="st1" d="M412.7,424.8h10.4v33.6h-10.4V424.8z"/>
			<path class="st1" d="M428.5,441.7c0-12.2,7.1-17.5,18-17.5c11,0,17.9,5.3,17.9,17.5c0,12.1-7,17.3-18,17.3
				C435.5,459,428.5,453.8,428.5,441.7z M453.9,441.7c0-8.2-2.4-10.3-7.4-10.3c-5,0-7.4,2.2-7.4,10.3c0,8,2.5,10.1,7.4,10.1
				C451.4,451.9,453.9,449.8,453.9,441.7z"/>
			<path class="st1" d="M468.5,457.9v-7.2c2,0.3,6.2,0.7,11.8,0.7c5.5,0,6.8-0.7,6.8-2.8c0-2.2-0.9-3-7.5-3
				c-9.1,0-12.1-3.4-12.1-10.3c0-6.6,2.8-10.7,15.8-10.7c6,0,10.2,0.4,12.1,0.7v7.2c-2.1-0.2-5.9-0.5-11.5-0.5c-5,0-6.3,0.6-6.3,2.9
				c0,2.4,1,2.8,7.7,2.8c9,0,12,3.3,12,10.1c0,7.2-2.8,11-16.1,11C475.3,458.8,470.6,458.3,468.5,457.9z"/>
		</g>
		<g>
			<path class="st1" d="M242.3,482.7c0-6.2,3.3-9.4,10.2-9.4c2.8,0,4.3,0.2,5.1,0.3v3.9c-0.7-0.1-2.1-0.2-4.5-0.2
				c-3.7,0-5,1.6-5,5.4c0,3.8,1.3,5.4,5,5.4c2,0,3.7-0.1,4.5-0.3v3.9c-0.8,0.1-2.7,0.3-5.2,0.3C245.7,492.1,242.3,488.9,242.3,482.7
				z"/>
			<path class="st1" d="M259.1,482.7c0-6.7,3.9-9.6,9.9-9.6c6,0,9.8,2.9,9.8,9.6c0,6.7-3.8,9.5-9.9,9.5
				C262.9,492.2,259.1,489.4,259.1,482.7z M273,482.8c0-4.5-1.3-5.7-4.1-5.7s-4,1.2-4,5.7c0,4.4,1.4,5.5,4.1,5.5
				C271.7,488.3,273,487.2,273,482.8z"/>
			<path class="st1" d="M281.5,473.5h5.9l5.1,8.7c0.8,1.4,1.6,3.5,1.6,3.5s-0.1-2.3-0.1-4.1v-8h4.9v18.4H293l-5.1-8.7
				c-0.8-1.5-1.6-3.5-1.6-3.5s0.1,2.1,0.1,4v8.2h-4.9V473.5z"/>
			<path class="st1" d="M301.9,491.6v-3.9c1.1,0.2,3.4,0.4,6.5,0.4c3,0,3.7-0.4,3.7-1.6c0-1.2-0.5-1.6-4.1-1.6c-5,0-6.6-1.9-6.6-5.7
				c0-3.6,1.6-5.8,8.7-5.8c3.3,0,5.6,0.2,6.6,0.4v3.9c-1.2-0.1-3.2-0.3-6.3-0.3c-2.8,0-3.5,0.3-3.5,1.6c0,1.3,0.5,1.6,4.2,1.6
				c4.9,0,6.6,1.8,6.6,5.5c0,4-1.6,6.1-8.8,6.1C305.6,492.1,303,491.8,301.9,491.6z"/>
			<path class="st1" d="M324.3,477.5h-5.6v-4h16.9v4H330v14.4h-5.7V477.5z"/>
			<path class="st1" d="M353.7,487.1l2.4,4.8h-5.9l-2.3-4.7c-0.6-1.3-1.1-1.6-2.5-1.6h-1.9v6.4h-5.7v-18.4h10c5.8,0,7.9,2.1,7.9,6
				c0,3-1.6,4.6-3.9,5.5C352.5,485.3,353.1,486,353.7,487.1z M346.8,482.1c2.4,0,3.2-0.6,3.2-2.6c0-1.9-0.8-2.5-3.1-2.5h-3.5v5
				H346.8z"/>
			<path class="st1" d="M358.2,484.4v-10.9h5.7v10.3c0,3.5,0.6,4.5,3.2,4.5s3.2-1,3.2-4.5v-10.3h5.7v10.9c0,5.6-3,7.8-9.1,7.8
				C361.2,492.2,358.2,490,358.2,484.4z"/>
			<path class="st1" d="M378.5,482.7c0-6.2,3.3-9.4,10.2-9.4c2.8,0,4.3,0.2,5.1,0.3v3.9c-0.7-0.1-2.1-0.2-4.5-0.2
				c-3.7,0-5,1.6-5,5.4c0,3.8,1.3,5.4,5,5.4c2,0,3.7-0.1,4.5-0.3v3.9c-0.8,0.1-2.7,0.3-5.2,0.3C381.8,492.1,378.5,488.9,378.5,482.7
				z"/>
			<path class="st1" d="M395.3,482.7c0-6.2,3.3-9.4,10.2-9.4c2.8,0,4.3,0.2,5.1,0.3v3.9c-0.7-0.1-2.1-0.2-4.5-0.2
				c-3.7,0-5,1.6-5,5.4c0,3.8,1.3,5.4,5,5.4c2,0,3.7-0.1,4.5-0.3v3.9c-0.8,0.1-2.7,0.3-5.2,0.3C398.6,492.1,395.3,488.9,395.3,482.7
				z"/>
			<path class="st1" d="M413.3,473.5h5.7v18.4h-5.7V473.5z"/>
			<path class="st1" d="M422,482.7c0-6.7,3.9-9.6,9.9-9.6c6,0,9.8,2.9,9.8,9.6c0,6.7-3.8,9.5-9.9,9.5
				C425.8,492.2,422,489.4,422,482.7z M435.9,482.8c0-4.5-1.3-5.7-4.1-5.7s-4,1.2-4,5.7c0,4.4,1.3,5.5,4.1,5.5
				C434.5,488.3,435.9,487.2,435.9,482.8z"/>
			<path class="st1" d="M444.4,473.5h5.9l5.1,8.7c0.8,1.4,1.6,3.5,1.6,3.5s-0.2-2.3-0.2-4.1v-8h4.9v18.4h-5.8l-5.1-8.7
				c-0.8-1.5-1.7-3.5-1.7-3.5s0.2,2.1,0.2,4v8.2h-4.9V473.5z"/>
			<path class="st1" d="M465.2,473.5h15.4v4H471v3.1h8.5v3.8H471v3.5h10v4h-15.7V473.5z"/>
			<path class="st1" d="M483.2,491.6v-3.9c1.1,0.2,3.4,0.4,6.5,0.4c3,0,3.7-0.4,3.7-1.6c0-1.2-0.5-1.6-4.1-1.6c-5,0-6.6-1.9-6.6-5.7
				c0-3.6,1.6-5.8,8.7-5.8c3.3,0,5.6,0.2,6.6,0.4v3.9c-1.2-0.1-3.2-0.3-6.3-0.3c-2.8,0-3.5,0.3-3.5,1.6c0,1.3,0.5,1.6,4.2,1.6
				c4.9,0,6.6,1.8,6.6,5.5c0,4-1.6,6.1-8.8,6.1C486.9,492.1,484.3,491.8,483.2,491.6z"/>
		</g>
	</g>
</g>
</svg>
