<?xml version="1.0" encoding="utf-8"?>
<!-- Generator: Adobe Illustrator 27.5.0, SVG Export Plug-In . SVG Version: 6.00 Build 0)  -->
<svg version="1.1" xmlns="http://www.w3.org/2000/svg" xmlns:xlink="http://www.w3.org/1999/xlink" x="0px" y="0px"
	 viewBox="0 0 2500 2500" style="enable-background:new 0 0 2500 2500;" xml:space="preserve">
<g id="Background">
	<rect style="fill:#FFFFFF;" width="2500" height="2500"/>
</g>
<g id="Illustration">
	<g id="Gutter_cleaning_1_">
		<circle style="fill:#F2E6DC;" cx="1253.997" cy="1249.179" r="914.179"/>
		<path style="opacity:0.5;fill:#FFFFFF;" d="M2146.641,926.978c0.315-3.896,0.522-7.823,0.522-11.801
			c0-79.352-64.328-143.68-143.678-143.68c-20.143,0-39.306,4.162-56.706,11.644c-11.741-43.56-51.503-75.624-98.774-75.624
			c-18.316,0-35.492,4.836-50.363,13.265c-35.93-75.82-113.133-128.272-202.611-128.272c-98.094,0-181.412,63.051-211.784,150.817
			c-7.616-0.954-15.357-1.503-23.232-1.503c-102.275,0-185.188,82.889-185.232,185.153H2146.641z"/>
		<path style="opacity:0.5;fill:#FFFFFF;" d="M1460.501,1506.801c-0.208-2.576-0.345-5.173-0.345-7.803
			c0-52.473,42.538-95.011,95.01-95.011c13.32,0,25.992,2.752,37.498,7.7c7.764-28.805,34.057-50.008,65.316-50.008
			c12.112,0,23.47,3.198,33.303,8.772c23.759-50.138,74.812-84.823,133.981-84.823c64.867,0,119.963,41.694,140.047,99.731
			c5.036-0.631,10.155-0.994,15.363-0.994c67.632,0,122.46,54.812,122.488,122.436H1460.501z"/>
		<g>
			<rect x="341.471" y="926.05" style="fill:#FFFFFF;" width="1165.537" height="1238.95"/>
			<g>
				<polygon style="fill:#D87355;" points="1679.601,1095.708 340.436,1095.708 340.436,342.158 1371.204,342.158 				"/>
				<path style="fill:#363E44;" d="M1340.663,489.351c-8.292,0-16.571-1.705-24.405-5.109
					c-15.014-6.523-26.589-18.502-32.593-33.731l-42.504-107.808c-0.202-0.514,0.05-1.094,0.563-1.297
					c0.516-0.202,1.096,0.049,1.298,0.564l42.504,107.808c5.808,14.732,17.005,26.32,31.528,32.63
					c14.526,6.31,30.638,6.587,45.367,0.779c30.411-11.99,45.397-46.485,33.408-76.896l-24.857-63.049
					c-0.202-0.514,0.05-1.094,0.563-1.297c0.517-0.202,1.095,0.049,1.298,0.564l24.857,63.048
					c12.394,31.437-3.099,67.097-34.535,79.491C1355.873,487.918,1348.263,489.351,1340.663,489.351z"/>
				<path style="fill:#363E44;" d="M1210.695,489.351c-8.292,0-16.571-1.705-24.405-5.109
					c-15.014-6.523-26.589-18.502-32.593-33.731l-42.504-107.808c-0.202-0.514,0.05-1.094,0.563-1.297
					c0.517-0.202,1.095,0.049,1.298,0.564l42.504,107.808c5.808,14.732,17.005,26.32,31.528,32.63
					c14.525,6.31,30.638,6.587,45.367,0.779c14.732-5.808,26.32-17.005,32.631-31.529c6.31-14.524,6.586-30.636,0.777-45.367
					l-24.857-63.049c-0.202-0.514,0.05-1.094,0.563-1.297c0.516-0.202,1.095,0.049,1.298,0.564l24.857,63.048
					c6.004,15.229,5.718,31.884-0.805,46.898c-6.522,15.014-18.502,26.589-33.73,32.593
					C1225.905,487.918,1218.295,489.351,1210.695,489.351z"/>
				<path style="fill:#363E44;" d="M1080.728,489.351c-8.292,0-16.571-1.705-24.405-5.109
					c-15.014-6.523-26.589-18.502-32.593-33.731l-42.504-107.808c-0.202-0.514,0.05-1.094,0.564-1.297
					c0.516-0.202,1.095,0.049,1.298,0.564l42.504,107.808c5.808,14.732,17.005,26.32,31.528,32.63
					c14.525,6.31,30.638,6.587,45.367,0.779c14.732-5.808,26.32-17.005,32.631-31.529c6.31-14.524,6.586-30.636,0.777-45.367
					l-24.856-63.049c-0.202-0.514,0.05-1.094,0.563-1.297c0.516-0.202,1.096,0.049,1.298,0.564l24.856,63.048
					c6.004,15.229,5.718,31.884-0.805,46.898c-6.522,15.014-18.502,26.589-33.73,32.593
					C1095.938,487.918,1088.327,489.351,1080.728,489.351z"/>
				<path style="fill:#363E44;" d="M950.76,489.351c-8.292,0-16.571-1.705-24.405-5.109c-15.014-6.523-26.589-18.502-32.593-33.731
					l-42.504-107.808c-0.202-0.514,0.05-1.094,0.563-1.297c0.518-0.202,1.095,0.049,1.298,0.564l42.504,107.808
					c5.808,14.732,17.005,26.32,31.528,32.63c14.525,6.31,30.639,6.587,45.367,0.779c14.732-5.808,26.32-17.005,32.631-31.529
					c6.31-14.524,6.586-30.636,0.777-45.367l-24.857-63.049c-0.202-0.514,0.05-1.094,0.563-1.297
					c0.518-0.202,1.095,0.049,1.298,0.564l24.857,63.048c6.004,15.229,5.718,31.884-0.805,46.898
					c-6.523,15.014-18.502,26.589-33.73,32.593C965.97,487.918,958.359,489.351,950.76,489.351z"/>
				<path style="fill:#363E44;" d="M820.881,489.32c-24.445,0.002-47.591-14.724-57.087-38.808l-42.503-107.808
					c-0.202-0.514,0.05-1.094,0.563-1.297c0.518-0.202,1.095,0.049,1.298,0.564l42.503,107.808
					c11.99,30.411,46.488,45.397,76.896,33.408c14.732-5.808,26.32-17.005,32.631-31.529c6.31-14.524,6.586-30.636,0.777-45.367
					l-24.857-63.049c-0.202-0.514,0.05-1.094,0.564-1.297c0.517-0.202,1.095,0.049,1.298,0.564l24.856,63.048
					c6.004,15.229,5.718,31.884-0.805,46.898c-6.522,15.014-18.502,26.589-33.73,32.593
					C835.933,487.946,828.344,489.319,820.881,489.32z"/>
				<path style="fill:#363E44;" d="M690.913,489.32c-24.445,0.002-47.591-14.724-57.087-38.808l-42.503-107.808
					c-0.202-0.514,0.05-1.094,0.564-1.297c0.517-0.202,1.095,0.049,1.298,0.564l42.503,107.808
					c11.99,30.411,46.488,45.397,76.896,33.408c30.411-11.99,45.398-46.485,33.409-76.896l-24.857-63.049
					c-0.202-0.514,0.05-1.094,0.563-1.297c0.518-0.202,1.095,0.049,1.298,0.564l24.857,63.048
					c12.394,31.437-3.1,67.096-34.536,79.491C705.965,487.946,698.376,489.319,690.913,489.32z"/>
				<path style="fill:#363E44;" d="M560.945,489.32c-24.445,0.002-47.591-14.724-57.087-38.808l-42.503-107.808
					c-0.202-0.514,0.05-1.094,0.563-1.297c0.516-0.202,1.095,0.049,1.298,0.564l42.503,107.808
					c11.99,30.411,46.488,45.397,76.895,33.408c30.411-11.989,45.398-46.485,33.409-76.896l-24.857-63.049
					c-0.202-0.514,0.05-1.094,0.564-1.297c0.517-0.202,1.095,0.049,1.298,0.564l24.857,63.048
					c12.394,31.437-3.099,67.097-34.535,79.491C575.997,487.946,568.408,489.319,560.945,489.32z"/>
				<path style="fill:#363E44;" d="M430.89,489.351c-8.292,0-16.571-1.705-24.405-5.109c-15.014-6.523-26.589-18.502-32.593-33.731
					l-34.616-87.8c-0.202-0.514,0.05-1.094,0.564-1.297c0.516-0.202,1.095,0.049,1.298,0.564l34.616,87.8
					c5.808,14.732,17.005,26.32,31.528,32.63c14.526,6.31,30.638,6.586,45.367,0.779c30.411-11.99,45.397-46.485,33.408-76.896
					l-24.857-63.049c-0.202-0.514,0.05-1.094,0.564-1.297c0.516-0.202,1.095,0.049,1.298,0.564l24.858,63.048
					c12.393,31.437-3.099,67.097-34.535,79.491C446.1,487.918,438.489,489.351,430.89,489.351z"/>
				<path style="fill:#363E44;" d="M1450.894,636.91c-24.445,0-47.591-14.724-57.087-38.808l-42.504-107.808
					c-0.202-0.514,0.05-1.095,0.563-1.297c0.516-0.203,1.095,0.049,1.298,0.563l42.504,107.808
					c11.989,30.411,46.487,45.397,76.896,33.408c4.807-1.895,9.334-4.395,13.456-7.43c0.446-0.328,1.071-0.232,1.398,0.212
					c0.327,0.445,0.232,1.071-0.213,1.398c-4.261,3.138-8.94,5.722-13.907,7.681C1465.944,635.536,1458.356,636.91,1450.894,636.91z
					"/>
				<path style="fill:#363E44;" d="M1320.926,636.91c-24.445,0.002-47.591-14.724-57.087-38.808l-42.503-107.808
					c-0.202-0.514,0.05-1.095,0.563-1.297c0.516-0.203,1.096,0.049,1.298,0.563l42.503,107.808
					c11.989,30.411,46.487,45.397,76.896,33.408c30.411-11.99,45.398-46.485,33.409-76.896l-24.857-63.049
					c-0.202-0.514,0.05-1.094,0.563-1.297c0.517-0.202,1.095,0.05,1.298,0.564l24.857,63.049c12.394,31.437-3.1,67.096-34.536,79.49
					C1335.978,635.536,1328.389,636.909,1320.926,636.91z"/>
				<path style="fill:#363E44;" d="M1190.958,636.91c-24.445,0.002-47.591-14.724-57.087-38.808l-42.503-107.808
					c-0.202-0.514,0.05-1.095,0.563-1.297c0.517-0.203,1.095,0.049,1.298,0.563l42.503,107.808
					c11.989,30.411,46.487,45.397,76.896,33.408c30.411-11.99,45.398-46.485,33.409-76.896l-24.857-63.049
					c-0.202-0.514,0.05-1.094,0.563-1.297c0.516-0.202,1.095,0.05,1.298,0.564l24.857,63.049c12.394,31.437-3.1,67.096-34.536,79.49
					C1206.01,635.536,1198.421,636.909,1190.958,636.91z"/>
				<path style="fill:#363E44;" d="M1060.99,636.91c-24.445,0.002-47.591-14.724-57.087-38.808L961.4,490.294
					c-0.202-0.514,0.05-1.095,0.564-1.297c0.516-0.203,1.095,0.049,1.298,0.563l42.503,107.808
					c11.989,30.411,46.482,45.399,76.896,33.408c30.411-11.989,45.398-46.485,33.409-76.896l-24.857-63.049
					c-0.202-0.514,0.05-1.094,0.563-1.297c0.518-0.202,1.095,0.05,1.298,0.564l24.857,63.049
					c12.394,31.437-3.099,67.097-34.535,79.49C1076.042,635.536,1068.453,636.91,1060.99,636.91z"/>
				<path style="fill:#363E44;" d="M930.935,636.942c-8.292,0-16.571-1.705-24.405-5.109c-15.014-6.523-26.589-18.502-32.593-33.731
					l-42.504-107.808c-0.202-0.514,0.05-1.095,0.563-1.297c0.518-0.203,1.095,0.049,1.298,0.563l42.504,107.808
					c5.808,14.732,17.005,26.32,31.528,32.63c14.525,6.31,30.639,6.586,45.367,0.778c30.411-11.989,45.397-46.485,33.408-76.896
					l-24.858-63.049c-0.202-0.514,0.05-1.094,0.564-1.297c0.517-0.202,1.096,0.05,1.298,0.564l24.857,63.049
					c12.393,31.437-3.099,67.097-34.535,79.49C946.144,635.508,938.534,636.941,930.935,636.942z"/>
				<path style="fill:#363E44;" d="M800.967,636.942c-8.292,0-16.571-1.705-24.405-5.109c-15.014-6.523-26.589-18.502-32.593-33.731
					l-42.504-107.808c-0.202-0.514,0.05-1.095,0.564-1.297c0.517-0.203,1.096,0.049,1.298,0.563l42.504,107.808
					c5.808,14.732,17.005,26.32,31.528,32.63c14.526,6.31,30.638,6.586,45.367,0.778c14.732-5.808,26.32-17.005,32.631-31.529
					c6.31-14.524,6.586-30.636,0.777-45.367l-24.857-63.049c-0.202-0.514,0.05-1.094,0.563-1.297
					c0.518-0.202,1.095,0.05,1.298,0.564l24.857,63.049c6.004,15.229,5.718,31.884-0.805,46.898
					c-6.522,15.014-18.502,26.589-33.73,32.593C816.177,635.508,808.566,636.941,800.967,636.942z"/>
				<path style="fill:#363E44;" d="M670.999,636.942c-8.292,0-16.571-1.705-24.405-5.109c-15.014-6.523-26.589-18.502-32.593-33.731
					l-42.504-107.808c-0.202-0.514,0.05-1.095,0.563-1.297c0.516-0.203,1.095,0.049,1.298,0.563l42.504,107.808
					c5.808,14.732,17.005,26.32,31.528,32.63c14.525,6.31,30.638,6.586,45.367,0.778c14.732-5.808,26.32-17.005,32.631-31.529
					c6.31-14.524,6.586-30.636,0.777-45.367l-24.856-63.049c-0.202-0.514,0.05-1.094,0.563-1.297
					c0.516-0.202,1.095,0.05,1.298,0.564l24.856,63.049c6.004,15.229,5.718,31.884-0.805,46.898
					c-6.523,15.014-18.502,26.589-33.731,32.593C686.209,635.508,678.599,636.941,670.999,636.942z"/>
				<path style="fill:#363E44;" d="M541.031,636.942c-8.292,0-16.571-1.705-24.405-5.109c-15.014-6.523-26.589-18.502-32.593-33.731
					l-42.504-107.808c-0.202-0.514,0.05-1.095,0.564-1.297c0.517-0.203,1.095,0.049,1.298,0.563l42.504,107.808
					c5.808,14.732,17.005,26.32,31.528,32.63c14.525,6.31,30.638,6.586,45.367,0.778c14.733-5.808,26.32-17.005,32.631-31.529
					c6.31-14.524,6.586-30.636,0.777-45.367l-24.856-63.049c-0.202-0.514,0.05-1.094,0.563-1.297
					c0.517-0.202,1.095,0.05,1.298,0.564l24.856,63.049c6.004,15.229,5.718,31.884-0.805,46.898
					c-6.522,15.014-18.502,26.589-33.73,32.593C556.241,635.508,548.631,636.941,541.031,636.942z"/>
				<path style="fill:#363E44;" d="M411.152,636.91c-24.445,0.002-47.591-14.724-57.087-38.808l-14.103-35.773
					c-0.202-0.514,0.05-1.094,0.563-1.297c0.516-0.202,1.096,0.05,1.298,0.564l14.104,35.773
					c11.989,30.411,46.486,45.397,76.896,33.408c30.411-11.99,45.398-46.485,33.409-76.896l-24.857-63.049
					c-0.202-0.514,0.05-1.094,0.564-1.297c0.516-0.202,1.096,0.05,1.298,0.564l24.857,63.049c12.393,31.437-3.1,67.096-34.536,79.49
					C426.204,635.536,418.615,636.909,411.152,636.91z"/>
				<path style="fill:#363E44;" d="M1428.777,782.329c-8.293,0-16.572-1.705-24.406-5.109
					c-15.014-6.523-26.589-18.502-32.593-33.731l-42.504-107.808c-0.202-0.514,0.05-1.095,0.563-1.297
					c0.517-0.202,1.095,0.049,1.298,0.563l42.504,107.808c5.808,14.732,17.005,26.32,31.528,32.63
					c14.525,6.31,30.638,6.587,45.367,0.779c14.732-5.808,26.32-17.005,32.631-31.529c6.31-14.524,6.586-30.636,0.777-45.367
					l-24.856-63.049c-0.202-0.514,0.05-1.095,0.563-1.297c0.517-0.203,1.096,0.049,1.298,0.563l24.856,63.049
					c6.004,15.229,5.718,31.884-0.805,46.898s-18.502,26.589-33.73,32.593C1443.986,780.896,1436.376,782.329,1428.777,782.329z"/>
				<path style="fill:#363E44;" d="M1551.47,781.865c-0.04,0-0.081-0.003-0.123-0.008c-22.345-2.742-41.351-17.443-49.601-38.368
					l-42.504-107.808c-0.202-0.514,0.05-1.095,0.563-1.297c0.518-0.202,1.095,0.049,1.298,0.563l42.504,107.808
					c7.98,20.242,26.366,34.464,47.983,37.117c0.548,0.067,0.938,0.566,0.87,1.114
					C1552.399,781.494,1551.968,781.865,1551.47,781.865z"/>
				<path style="fill:#363E44;" d="M1298.897,782.298c-24.445,0.002-47.591-14.724-57.087-38.808l-42.504-107.808
					c-0.202-0.514,0.05-1.095,0.563-1.297c0.518-0.202,1.095,0.049,1.298,0.563l42.504,107.808
					c11.99,30.411,46.487,45.397,76.896,33.408c14.732-5.808,26.32-17.005,32.631-31.529c6.31-14.524,6.586-30.636,0.777-45.367
					l-24.856-63.049c-0.202-0.514,0.05-1.095,0.563-1.297c0.518-0.203,1.095,0.049,1.298,0.563l24.856,63.049
					c6.004,15.229,5.718,31.884-0.805,46.898s-18.502,26.589-33.73,32.593C1313.949,780.924,1306.36,782.297,1298.897,782.298z"/>
				<path style="fill:#363E44;" d="M1168.93,782.298c-24.445,0.002-47.591-14.724-57.087-38.808l-42.503-107.808
					c-0.202-0.514,0.05-1.095,0.563-1.297c0.516-0.202,1.095,0.049,1.298,0.563l42.503,107.808
					c11.99,30.411,46.487,45.397,76.896,33.408c30.411-11.99,45.398-46.485,33.409-76.897l-24.857-63.048
					c-0.202-0.514,0.05-1.095,0.563-1.297c0.517-0.203,1.095,0.049,1.298,0.563l24.857,63.049
					c12.394,31.437-3.1,67.096-34.536,79.49C1183.981,780.924,1176.393,782.297,1168.93,782.298z"/>
				<path style="fill:#363E44;" d="M1038.962,782.297c-24.445,0.002-47.591-14.724-57.087-38.808l-42.503-107.808
					c-0.202-0.514,0.05-1.095,0.563-1.297c0.517-0.202,1.095,0.049,1.298,0.563l42.503,107.808
					c11.99,30.411,46.487,45.397,76.896,33.408c30.411-11.99,45.398-46.485,33.409-76.897l-24.857-63.048
					c-0.202-0.514,0.05-1.095,0.563-1.297c0.516-0.203,1.095,0.049,1.298,0.563l24.857,63.049
					c12.394,31.437-3.1,67.096-34.535,79.49C1054.014,780.924,1046.426,782.297,1038.962,782.297z"/>
				<path style="fill:#363E44;" d="M908.994,782.298c-24.445,0.002-47.591-14.724-57.087-38.808l-42.503-107.808
					c-0.202-0.514,0.05-1.095,0.563-1.297c0.516-0.202,1.095,0.049,1.298,0.563l42.503,107.808
					c11.989,30.41,46.482,45.399,76.896,33.408c30.411-11.99,45.398-46.485,33.408-76.897l-24.857-63.048
					c-0.202-0.514,0.05-1.095,0.563-1.297c0.517-0.203,1.095,0.049,1.298,0.563l24.857,63.049
					c12.394,31.437-3.099,67.097-34.535,79.49C924.046,780.924,916.457,782.297,908.994,782.298z"/>
				<path style="fill:#363E44;" d="M778.94,782.329c-8.293,0-16.572-1.705-24.406-5.109c-15.014-6.523-26.589-18.502-32.593-33.731
					l-42.504-107.808c-0.202-0.514,0.05-1.095,0.563-1.297c0.517-0.202,1.095,0.049,1.298,0.563l42.504,107.808
					c5.808,14.732,17.005,26.32,31.528,32.63c14.525,6.31,30.639,6.587,45.367,0.779c14.732-5.808,26.32-17.005,32.631-31.529
					c6.31-14.524,6.586-30.636,0.777-45.367l-24.858-63.049c-0.202-0.514,0.05-1.095,0.564-1.297
					c0.516-0.203,1.096,0.049,1.298,0.563l24.857,63.049c6.004,15.229,5.718,31.884-0.805,46.898
					c-6.523,15.014-18.502,26.589-33.731,32.593C794.148,780.896,786.538,782.329,778.94,782.329z"/>
				<path style="fill:#363E44;" d="M648.972,782.329c-8.293,0-16.572-1.705-24.406-5.109c-15.014-6.523-26.589-18.502-32.593-33.731
					l-42.504-107.808c-0.202-0.514,0.05-1.095,0.563-1.297c0.516-0.202,1.096,0.049,1.298,0.563l42.504,107.808
					c5.808,14.732,17.005,26.32,31.528,32.63c14.525,6.31,30.638,6.587,45.367,0.779c14.732-5.808,26.32-17.005,32.631-31.529
					c6.31-14.524,6.586-30.636,0.777-45.367l-24.856-63.049c-0.202-0.514,0.05-1.095,0.563-1.297
					c0.516-0.203,1.095,0.049,1.298,0.563l24.856,63.049c6.004,15.229,5.718,31.884-0.805,46.898
					c-6.522,15.014-18.502,26.589-33.73,32.593C664.181,780.896,656.57,782.329,648.972,782.329z"/>
				<path style="fill:#363E44;" d="M519.004,782.329c-8.293,0-16.572-1.705-24.406-5.109c-15.014-6.523-26.589-18.502-32.593-33.731
					l-42.504-107.808c-0.202-0.514,0.05-1.095,0.564-1.297c0.517-0.202,1.095,0.049,1.298,0.563l42.504,107.808
					c5.808,14.732,17.005,26.32,31.528,32.63c14.525,6.31,30.638,6.587,45.367,0.779c14.732-5.808,26.32-17.005,32.631-31.529
					c6.31-14.524,6.586-30.636,0.777-45.367l-24.856-63.049c-0.202-0.514,0.05-1.095,0.564-1.297
					c0.517-0.203,1.095,0.049,1.298,0.563l24.857,63.049c6.004,15.229,5.718,31.884-0.805,46.898
					c-6.523,15.014-18.502,26.589-33.731,32.593C534.213,780.896,526.602,782.329,519.004,782.329z"/>
				<path style="fill:#363E44;" d="M389.061,782.3c-19.103,0.001-37.646-8.937-49.434-25.027c-0.326-0.445-0.23-1.071,0.216-1.398
					c0.443-0.326,1.069-0.23,1.397,0.216c11.401,15.561,29.343,24.208,47.82,24.209c7.284,0.001,14.649-1.343,21.733-4.136
					c14.732-5.808,26.32-17.005,32.631-31.529c6.31-14.524,6.586-30.636,0.777-45.367l-24.856-63.048
					c-0.202-0.514,0.05-1.095,0.564-1.297c0.516-0.203,1.096,0.049,1.298,0.563l24.857,63.049
					c6.004,15.229,5.718,31.884-0.805,46.898c-6.522,15.014-18.502,26.589-33.73,32.593
					C404.207,780.911,396.589,782.3,389.061,782.3z"/>
				<path style="fill:#363E44;" d="M1413.357,927.717c-8.293,0-16.572-1.705-24.406-5.109
					c-15.014-6.523-26.589-18.502-32.593-33.731l-42.504-107.808c-0.202-0.514,0.05-1.094,0.563-1.297
					c0.517-0.202,1.095,0.049,1.298,0.564l42.504,107.808c5.808,14.732,17.005,26.32,31.528,32.63
					c14.525,6.31,30.638,6.587,45.367,0.779c14.732-5.808,26.32-17.005,32.631-31.529c6.31-14.524,6.586-30.636,0.777-45.367
					l-24.856-63.049c-0.202-0.514,0.05-1.094,0.563-1.297c0.517-0.203,1.095,0.049,1.298,0.564l24.856,63.048
					c6.004,15.229,5.718,31.884-0.805,46.898s-18.502,26.589-33.73,32.593C1428.566,926.284,1420.956,927.716,1413.357,927.717z"/>
				<path style="fill:#363E44;" d="M1543.325,927.717c-8.293,0-16.572-1.705-24.406-5.109
					c-15.014-6.523-26.589-18.502-32.593-33.731l-42.504-107.808c-0.202-0.514,0.05-1.094,0.563-1.297
					c0.516-0.202,1.095,0.049,1.298,0.564l42.504,107.808c5.808,14.732,17.005,26.32,31.528,32.63
					c14.526,6.31,30.638,6.587,45.367,0.779c13.271-5.232,24.21-15.069,30.801-27.698c0.256-0.489,0.856-0.68,1.35-0.424
					c0.489,0.256,0.679,0.859,0.424,1.349c-6.814,13.056-18.122,23.224-31.84,28.633
					C1558.534,926.284,1550.924,927.717,1543.325,927.717z"/>
				<path style="fill:#363E44;" d="M1283.478,927.685c-24.445,0.002-47.591-14.724-57.087-38.808l-42.503-107.808
					c-0.202-0.514,0.05-1.094,0.563-1.297c0.517-0.202,1.095,0.049,1.298,0.564l42.503,107.808
					c11.99,30.411,46.488,45.398,76.896,33.409c14.732-5.808,26.32-17.005,32.631-31.529c6.31-14.524,6.586-30.636,0.777-45.367
					l-24.856-63.049c-0.202-0.514,0.05-1.094,0.563-1.297c0.516-0.203,1.096,0.049,1.298,0.564l24.856,63.048
					c6.004,15.229,5.718,31.884-0.805,46.898s-18.502,26.589-33.73,32.593C1298.529,926.311,1290.94,927.685,1283.478,927.685z"/>
				<path style="fill:#363E44;" d="M1153.51,927.685c-24.445,0.002-47.591-14.724-57.087-38.808l-42.503-107.808
					c-0.202-0.514,0.05-1.094,0.563-1.297c0.516-0.202,1.096,0.049,1.298,0.564l42.503,107.808
					c11.99,30.411,46.488,45.398,76.896,33.409c30.411-11.99,45.398-46.485,33.409-76.896l-24.857-63.049
					c-0.202-0.514,0.05-1.094,0.563-1.297c0.517-0.203,1.095,0.049,1.298,0.564l24.857,63.048
					c12.394,31.437-3.1,67.096-34.536,79.491C1168.562,926.311,1160.973,927.685,1153.51,927.685z"/>
				<path style="fill:#363E44;" d="M1023.542,927.685c-24.445,0.002-47.591-14.724-57.087-38.808l-42.503-107.808
					c-0.202-0.514,0.05-1.094,0.564-1.297c0.517-0.202,1.095,0.049,1.298,0.564l42.503,107.808
					c11.99,30.411,46.488,45.398,76.896,33.409c30.411-11.989,45.398-46.485,33.409-76.896l-24.857-63.049
					c-0.202-0.514,0.05-1.094,0.563-1.297c0.516-0.203,1.095,0.049,1.298,0.564l24.857,63.048
					c12.394,31.437-3.099,67.097-34.535,79.491C1038.594,926.311,1031.006,927.685,1023.542,927.685z"/>
				<path style="fill:#363E44;" d="M893.487,927.717c-8.293,0-16.572-1.705-24.406-5.109c-15.014-6.523-26.589-18.502-32.593-33.731
					l-42.504-107.808c-0.202-0.514,0.05-1.094,0.564-1.297c0.516-0.202,1.095,0.049,1.298,0.564l42.504,107.808
					c5.808,14.732,17.005,26.32,31.528,32.63c14.525,6.31,30.638,6.587,45.367,0.779c30.411-11.99,45.397-46.485,33.408-76.896
					l-24.857-63.049c-0.202-0.514,0.05-1.094,0.563-1.297c0.517-0.203,1.095,0.049,1.298,0.564l24.857,63.048
					c12.394,31.437-3.099,67.097-34.535,79.491C908.696,926.284,901.086,927.716,893.487,927.717z"/>
				<path style="fill:#363E44;" d="M763.519,927.717c-8.293,0-16.572-1.705-24.406-5.109c-15.014-6.523-26.589-18.502-32.593-33.731
					l-42.504-107.808c-0.202-0.514,0.05-1.094,0.563-1.297c0.517-0.202,1.095,0.049,1.298,0.564l42.504,107.808
					c5.808,14.732,17.005,26.32,31.528,32.63c14.525,6.31,30.639,6.587,45.367,0.779c14.733-5.808,26.32-17.005,32.631-31.529
					c6.31-14.524,6.586-30.636,0.777-45.367l-24.857-63.049c-0.202-0.514,0.05-1.094,0.563-1.297
					c0.516-0.203,1.096,0.049,1.298,0.564l24.857,63.048c6.004,15.229,5.718,31.884-0.805,46.898
					c-6.522,15.014-18.502,26.589-33.73,32.593C778.729,926.284,771.118,927.716,763.519,927.717z"/>
				<path style="fill:#363E44;" d="M633.552,927.717c-8.293,0-16.572-1.705-24.406-5.109c-15.014-6.523-26.589-18.502-32.593-33.731
					l-42.504-107.808c-0.202-0.514,0.05-1.094,0.563-1.297c0.517-0.202,1.096,0.049,1.298,0.564l42.504,107.808
					c5.808,14.732,17.005,26.32,31.528,32.63c14.526,6.31,30.638,6.587,45.367,0.779c14.732-5.808,26.32-17.005,32.631-31.529
					c6.31-14.524,6.586-30.636,0.777-45.367l-24.856-63.049c-0.202-0.514,0.05-1.094,0.563-1.297
					c0.517-0.203,1.095,0.049,1.298,0.564l24.856,63.048c6.004,15.229,5.718,31.884-0.805,46.898
					c-6.522,15.014-18.502,26.589-33.731,32.593C648.761,926.284,641.15,927.716,633.552,927.717z"/>
				<path style="fill:#363E44;" d="M503.584,927.717c-8.293,0-16.572-1.705-24.406-5.109c-15.014-6.523-26.589-18.502-32.593-33.731
					l-42.504-107.808c-0.202-0.514,0.05-1.094,0.563-1.297c0.518-0.202,1.095,0.049,1.298,0.564l42.504,107.808
					c5.808,14.732,17.005,26.32,31.528,32.63c14.525,6.31,30.638,6.587,45.367,0.779c14.732-5.808,26.32-17.005,32.631-31.529
					c6.31-14.524,6.586-30.636,0.777-45.367l-24.856-63.049c-0.202-0.514,0.05-1.094,0.563-1.297
					c0.518-0.203,1.095,0.049,1.298,0.564l24.856,63.048c6.004,15.229,5.718,31.884-0.805,46.898
					c-6.522,15.014-18.502,26.589-33.73,32.593C518.793,926.284,511.183,927.716,503.584,927.717z"/>
				<path style="fill:#363E44;" d="M373.638,927.685c-12.101,0-24.111-3.584-34.43-10.575c-0.458-0.31-0.577-0.931-0.268-1.389
					c0.311-0.457,0.933-0.576,1.389-0.267c16.243,11.004,36.82,13.284,55.045,6.098c14.732-5.808,26.32-17.005,32.631-31.529
					c6.31-14.524,6.586-30.636,0.777-45.367l-24.856-63.049c-0.202-0.514,0.05-1.094,0.563-1.297
					c0.517-0.203,1.096,0.049,1.298,0.564l24.856,63.048c6.004,15.229,5.718,31.884-0.805,46.898
					c-6.522,15.014-18.502,26.589-33.73,32.593C388.848,926.275,381.225,927.684,373.638,927.685z"/>
				<path style="fill:#363E44;" d="M1523.587,1073.073c-24.445,0.002-47.591-14.724-57.087-38.808l-42.503-107.808
					c-0.202-0.514,0.05-1.095,0.563-1.297c0.516-0.202,1.095,0.05,1.298,0.564l42.503,107.808
					c11.989,30.411,46.482,45.399,76.896,33.408c30.411-11.989,45.398-46.485,33.409-76.896l-24.857-63.049
					c-0.202-0.514,0.05-1.095,0.563-1.297c0.517-0.202,1.095,0.049,1.298,0.564l24.857,63.048
					c12.394,31.437-3.099,67.097-34.535,79.491C1538.639,1071.699,1531.05,1073.072,1523.587,1073.073z"/>
				<path style="fill:#363E44;" d="M1653.315,1073.121c-24.577,0-47.392-14.872-56.848-38.856l-42.503-107.808
					c-0.202-0.514,0.05-1.095,0.563-1.297c0.517-0.202,1.095,0.05,1.298,0.564l42.503,107.808
					c11.202,28.413,41.788,43.609,71.145,35.347c0.529-0.149,1.084,0.16,1.233,0.692c0.149,0.532-0.16,1.084-0.692,1.234
					C1664.449,1072.37,1658.836,1073.121,1653.315,1073.121z"/>
				<path style="fill:#363E44;" d="M1393.531,1073.104c-8.292,0-16.571-1.705-24.405-5.109
					c-15.014-6.523-26.589-18.502-32.593-33.731l-42.504-107.808c-0.202-0.514,0.05-1.095,0.563-1.297
					c0.517-0.202,1.095,0.05,1.298,0.564l42.504,107.808c5.808,14.732,17.005,26.32,31.528,32.63
					c14.525,6.31,30.638,6.587,45.367,0.778c30.411-11.99,45.397-46.485,33.408-76.896l-24.857-63.049
					c-0.202-0.514,0.05-1.095,0.563-1.297c0.516-0.202,1.095,0.049,1.298,0.564l24.857,63.048
					c12.394,31.437-3.099,67.097-34.535,79.491C1408.741,1071.671,1401.131,1073.104,1393.531,1073.104z"/>
				<path style="fill:#363E44;" d="M1263.563,1073.104c-8.292,0-16.571-1.705-24.405-5.109
					c-15.014-6.523-26.589-18.502-32.593-33.731l-42.504-107.808c-0.202-0.514,0.05-1.095,0.563-1.297
					c0.516-0.202,1.095,0.05,1.298,0.564l42.504,107.808c5.808,14.732,17.005,26.32,31.528,32.63
					c14.525,6.31,30.638,6.587,45.367,0.778c14.732-5.808,26.32-17.005,32.631-31.529c6.31-14.524,6.586-30.635,0.777-45.367
					l-24.857-63.049c-0.202-0.514,0.05-1.095,0.563-1.297c0.517-0.202,1.095,0.049,1.298,0.564l24.857,63.048
					c6.004,15.229,5.718,31.884-0.805,46.898c-6.522,15.014-18.502,26.589-33.73,32.593
					C1278.773,1071.671,1271.163,1073.104,1263.563,1073.104z"/>
				<path style="fill:#363E44;" d="M1133.596,1073.104c-8.292,0-16.571-1.705-24.405-5.109
					c-15.014-6.523-26.589-18.502-32.593-33.731l-42.504-107.808c-0.202-0.514,0.05-1.095,0.563-1.297
					c0.517-0.202,1.095,0.05,1.298,0.564l42.504,107.808c5.808,14.732,17.005,26.32,31.528,32.63
					c14.525,6.31,30.639,6.587,45.367,0.778c14.732-5.808,26.32-17.005,32.631-31.529c6.31-14.524,6.586-30.635,0.777-45.367
					l-24.856-63.049c-0.202-0.514,0.05-1.094,0.563-1.297c0.517-0.202,1.095,0.05,1.298,0.564l24.856,63.049
					c6.004,15.229,5.718,31.884-0.805,46.898c-6.522,15.014-18.502,26.589-33.73,32.593
					C1148.806,1071.671,1141.195,1073.104,1133.596,1073.104z"/>
				<path style="fill:#363E44;" d="M1003.628,1073.104c-8.292,0-16.571-1.705-24.405-5.109
					c-15.014-6.523-26.589-18.502-32.593-33.731l-42.504-107.808c-0.202-0.514,0.05-1.095,0.564-1.297
					c0.516-0.202,1.096,0.05,1.298,0.564l42.504,107.808c5.808,14.732,17.005,26.32,31.528,32.63
					c14.526,6.31,30.638,6.587,45.367,0.778c14.732-5.808,26.32-17.005,32.631-31.529c6.31-14.524,6.586-30.635,0.777-45.367
					l-24.856-63.049c-0.202-0.514,0.05-1.094,0.563-1.297c0.516-0.202,1.095,0.05,1.298,0.564l24.856,63.049
					c6.004,15.229,5.718,31.884-0.805,46.898c-6.522,15.014-18.502,26.589-33.73,32.593
					C1018.838,1071.671,1011.227,1073.104,1003.628,1073.104z"/>
				<path style="fill:#363E44;" d="M873.749,1073.073c-24.445,0.002-47.591-14.724-57.087-38.808l-42.503-107.808
					c-0.202-0.514,0.05-1.095,0.564-1.297c0.516-0.202,1.095,0.05,1.298,0.564l42.503,107.808
					c11.989,30.411,46.486,45.397,76.896,33.408c30.411-11.99,45.398-46.485,33.409-76.896l-24.857-63.049
					c-0.202-0.514,0.05-1.095,0.563-1.297c0.518-0.202,1.095,0.049,1.298,0.564l24.858,63.048
					c12.393,31.437-3.1,67.096-34.536,79.491C888.801,1071.699,881.212,1073.072,873.749,1073.073z"/>
				<path style="fill:#363E44;" d="M743.781,1073.073c-24.445,0.002-47.591-14.724-57.087-38.808l-42.503-107.808
					c-0.202-0.514,0.05-1.095,0.563-1.297c0.518-0.202,1.095,0.05,1.298,0.564l42.503,107.808
					c11.989,30.411,46.486,45.397,76.895,33.408c30.411-11.99,45.398-46.485,33.409-76.896l-24.857-63.049
					c-0.202-0.514,0.05-1.095,0.563-1.297c0.517-0.202,1.096,0.049,1.298,0.564l24.857,63.048
					c12.393,31.437-3.1,67.096-34.536,79.491C758.833,1071.699,751.244,1073.072,743.781,1073.073z"/>
				<path style="fill:#363E44;" d="M613.813,1073.073c-24.445,0.002-47.591-14.724-57.087-38.808l-42.503-107.808
					c-0.202-0.514,0.05-1.095,0.564-1.297c0.517-0.202,1.096,0.05,1.298,0.564l42.503,107.808
					c11.989,30.411,46.486,45.397,76.896,33.408c30.411-11.989,45.398-46.485,33.409-76.896l-24.857-63.049
					c-0.202-0.514,0.05-1.095,0.563-1.297c0.518-0.202,1.095,0.049,1.298,0.564l24.857,63.048
					c12.394,31.437-3.099,67.097-34.535,79.491C628.865,1071.699,621.276,1073.072,613.813,1073.073z"/>
				<path style="fill:#363E44;" d="M483.758,1073.104c-8.292,0-16.571-1.705-24.405-5.109
					c-15.014-6.523-26.589-18.502-32.593-33.731l-42.504-107.808c-0.202-0.514,0.05-1.095,0.563-1.297
					c0.518-0.202,1.095,0.05,1.298,0.564l42.504,107.808c5.808,14.732,17.005,26.32,31.528,32.63
					c14.525,6.31,30.638,6.587,45.367,0.778c30.411-11.99,45.398-46.485,33.408-76.896l-24.857-63.049
					c-0.202-0.514,0.05-1.095,0.564-1.297c0.517-0.202,1.095,0.049,1.298,0.564l24.857,63.048
					c12.394,31.437-3.099,67.097-34.535,79.491C498.968,1071.671,491.357,1073.104,483.758,1073.104z"/>
				<path style="fill:#363E44;" d="M353.82,1073.089c-4.43,0-8.869-0.484-13.254-1.458c-0.539-0.12-0.879-0.654-0.76-1.193
					c0.12-0.54,0.659-0.878,1.193-0.759c11.55,2.566,23.497,1.619,34.549-2.738c14.733-5.808,26.32-17.005,32.631-31.529
					c6.31-14.524,6.586-30.635,0.777-45.367L384.1,926.995c-0.202-0.514,0.05-1.095,0.563-1.297c0.516-0.202,1.095,0.05,1.298,0.564
					l24.857,63.048c6.004,15.229,5.718,31.884-0.805,46.898c-6.522,15.014-18.502,26.589-33.73,32.593
					C369.054,1071.65,361.452,1073.089,353.82,1073.089z"/>
			</g>
			<g>
				<path style="fill:#D3BBA3;" d="M1695.457,1213.247H331.824V1095.38h1407.637v73.865
					C1739.461,1193.546,1719.76,1213.247,1695.457,1213.247z"/>
				<g>
					<path style="fill:#776E42;" d="M1383.639,1151.602c0,0-36.773,9.019-65.385-8.005s-38.23-53.645-38.23-53.645
						s36.773-9.019,65.385,8.005C1374.021,1114.982,1383.639,1151.602,1383.639,1151.602z"/>
					<path style="fill:#EFBC73;" d="M1437.669,1169.062c0,0-31.563-20.913-38.45-53.487c-6.887-32.574,13.509-64.473,13.509-64.473
						s31.563,20.913,38.45,53.487C1458.065,1137.163,1437.669,1169.062,1437.669,1169.062z"/>
					<path style="fill:#9E9569;" d="M1448.875,1115.528c0,0-16.249,34.198-47.525,45.614c-31.276,11.415-65.734-4.275-65.734-4.275
						s16.25-34.198,47.525-45.614S1448.875,1115.528,1448.875,1115.528z"/>
					<path style="fill:#776E42;" d="M1440.702,1177.8c0,0-8.399-36.919,9.105-65.241c17.503-28.322,54.281-37.321,54.281-37.321
						s8.399,36.919-9.105,65.241C1477.479,1168.8,1440.702,1177.8,1440.702,1177.8z"/>
					<path style="fill:#9E9569;" d="M1619.563,1145.779c0,0-36.351,10.591-65.668-5.188c-29.318-15.779-40.499-51.952-40.499-51.952
						s36.351-10.591,65.668,5.188C1608.381,1109.606,1619.563,1145.779,1619.563,1145.779z"/>
					<path style="fill:#EFBC73;" d="M1585.529,1050.609c0,0,35.04,14.345,48.158,44.945c13.118,30.601-0.653,65.87-0.653,65.87
						s-35.04-14.344-48.158-44.945C1571.757,1085.878,1585.529,1050.609,1585.529,1050.609z"/>
					<path style="fill:#EFBC73;" d="M1555.169,1090.71c0,0,5.185,37.506-14.695,64.213c-19.88,26.707-57.296,32.502-57.296,32.502
						s-5.185-37.506,14.695-64.213C1517.753,1096.505,1555.169,1090.71,1555.169,1090.71z"/>
					<path style="fill:#776E42;" d="M1667.198,1102.357c0,0,35.137,14.106,48.462,44.617c13.326,30.511-0.206,65.873-0.206,65.873
						s-35.137-14.106-48.462-44.617C1653.667,1137.719,1667.198,1102.357,1667.198,1102.357z"/>
					<path style="fill:#9E9569;" d="M1599.239,1095.525c0,0,33.137-18.316,65.204-9.361c32.067,8.955,50.921,41.789,50.921,41.789
						s-33.137,18.316-65.204,9.361C1618.092,1128.359,1599.239,1095.525,1599.239,1095.525z"/>
				</g>
				<path style="fill:#E6D0BE;" d="M1661.481,1171.595v-32.159H331.824v73.202h1369.308v-0.2
					C1679.126,1211.769,1661.481,1193.764,1661.481,1171.595z"/>
				<path style="fill:#D3BBA3;" d="M1371.961,1215.705c-23.107,0-41.907-18.799-41.907-41.907v-34.591c0-0.552,0.447-1,1-1
					s1,0.448,1,1v34.591c0,22.005,17.902,39.907,39.907,39.907c0.553,0,1,0.448,1,1S1372.514,1215.705,1371.961,1215.705z"/>
				<path style="fill:#D3BBA3;" d="M1041.535,1215.705c-23.107,0-41.907-18.799-41.907-41.907v-34.591c0-0.552,0.447-1,1-1
					c0.553,0,1,0.448,1,1v34.591c0,22.005,17.902,39.907,39.907,39.907c0.553,0,1,0.448,1,1S1042.088,1215.705,1041.535,1215.705z"
					/>
				<path style="fill:#D3BBA3;" d="M711.108,1215.705c-23.107,0-41.907-18.799-41.907-41.907v-34.591c0-0.552,0.447-1,1-1
					c0.553,0,1,0.448,1,1v34.591c0,22.005,17.902,39.907,39.907,39.907c0.553,0,1,0.448,1,1S711.661,1215.705,711.108,1215.705z"/>
				<path style="fill:#D3BBA3;" d="M380.683,1215.705c-23.107,0-41.907-18.799-41.907-41.907v-34.591c0-0.552,0.447-1,1-1
					s1,0.448,1,1v34.591c0,22.005,17.902,39.907,39.907,39.907c0.553,0,1,0.448,1,1S381.235,1215.705,380.683,1215.705z"/>
			</g>
		</g>
		<g>
			<polygon style="fill:#E6D0BE;" points="1260.901,2161.971 1288.379,2161.971 1446.826,1310.779 1419.348,1310.779 			"/>
			<polygon style="fill:#E6D0BE;" points="801.237,2161.971 828.714,2161.971 1045.202,1310.779 1017.724,1310.779 			"/>
			<rect x="830.543" y="2078.388" style="fill:#E6D0BE;" width="457.96" height="26.169"/>
			<rect x="876.73" y="1857.495" style="fill:#E6D0BE;" width="457.96" height="26.169"/>
			<rect x="941.619" y="1636.602" style="fill:#E6D0BE;" width="433.233" height="26.169"/>
			<rect x="995.712" y="1416.129" style="fill:#E6D0BE;" width="419.302" height="25.328"/>
		</g>
		<path style="fill:#363E44;" d="M1764.768,1258.589c-0.146,0-0.293-0.032-0.433-0.099l-317.925-153.03
			c-46.815-22.534-102.166-7.895-131.609,34.81c-0.314,0.454-0.938,0.569-1.391,0.256c-0.455-0.314-0.569-0.936-0.256-1.391
			c14.289-20.724,35.615-35.77,60.052-42.365c24.69-6.664,50.997-4.218,74.071,6.889l317.925,153.03
			c0.498,0.24,0.707,0.837,0.468,1.335C1765.497,1258.381,1765.14,1258.589,1764.768,1258.589z"/>
		<g>
			<g>
				<path style="fill:#84524D;" d="M560.924,1509.515c0.004,0.002,144.732-213.841,164.578-246.416
					c2.078-3.411,5.774-9.416,8.282-18.23c9.296-32.658-12.596-51.553-18.491-90.353c-6.689-44.025,14.47-72.601,4.771-78.539
					c-6.746-4.13-17.763,4.402-32.066,28.572c-0.001,0.002-0.005,0-0.004-0.002c8.756-19.612,19.47-46.729,8.617-51.536
					c-12.828-4.881-29.157,25.5-38.136,44.361c10.869-22.83,9.818-38.222,3.1-39.394c-10.576-1.845-23.127,13.896-36.321,44.626
					c-0.001,0.001-0.003,0.001-0.002,0c3.183-23.764,0.414-30.003-5.778-29.592c-11.305,0.752-21.677,26.22-27.395,50.141
					c-6.437,26.929-2.088,50.047,1.002,64.558c0,0.004,0,0.008-0.003,0.011c-75.363,96.557-143.427,167.061-193.734,247.64
					C388.623,1452.534,501.259,1484.237,560.924,1509.515z"/>
				<path style="fill:#363E44;" d="M683.273,1140.734c-0.493,0-0.922-0.364-0.99-0.866c-0.781-5.786-0.813-11.655-0.097-17.445
					c0.739-5.981,2.276-11.848,4.567-17.436c0.21-0.512,0.797-0.755,1.304-0.546c0.512,0.209,0.756,0.794,0.546,1.305
					c-2.223,5.424-3.714,11.118-4.433,16.924c-0.695,5.619-0.664,11.316,0.095,16.931c0.073,0.547-0.31,1.051-0.857,1.125
					C683.362,1140.731,683.316,1140.734,683.273,1140.734z"/>
				<path style="fill:#363E44;" d="M650.595,1137.27c-0.537,0-0.981-0.427-0.998-0.968c-0.216-6.715,0.446-13.443,1.967-19.997
					c1.572-6.773,4.053-13.324,7.373-19.473c0.262-0.486,0.868-0.667,1.355-0.405c0.485,0.262,0.667,0.869,0.404,1.355
					c-3.235,5.991-5.652,12.375-7.185,18.974c-1.48,6.386-2.126,12.94-1.917,19.481c0.019,0.552-0.415,1.014-0.967,1.031
					C650.617,1137.269,650.606,1137.27,650.595,1137.27z"/>
				<path style="fill:#363E44;" d="M621.509,1146.88c-0.479,0-0.902-0.345-0.985-0.833c-1.199-7.074-1.477-14.286-0.827-21.436
					c0.672-7.388,2.331-14.668,4.932-21.638c0.192-0.517,0.77-0.78,1.286-0.587c0.517,0.193,0.78,0.769,0.587,1.286
					c-2.538,6.803-4.157,13.909-4.813,21.12c-0.635,6.978-0.363,14.017,0.808,20.921c0.092,0.545-0.274,1.061-0.819,1.153
					C621.62,1146.875,621.565,1146.88,621.509,1146.88z"/>
			</g>
			<path style="fill:#84524D;" d="M734.196,1241.823c3.979-5.383,46.01-64.759,35.239-75.539
				c-9.239-9.247-51.979,19.426-60.597,25.293C717.621,1207.209,725.413,1226.191,734.196,1241.823z"/>
			<g>
				<path style="fill:#84524D;" d="M1153.138,1122.249c-4.467-43.814-10.934-68.959-31.837-85.834
					c-28.093-22.678-66.599-12.799-70.603-11.707c-2.556,0.697-39.498,8.418-53.958,43.533
					c-14.28,34.678-9.698,75.708,13.721,104.565l-19.767,80.46c-6.346,25.831,9.449,51.915,35.28,58.261l5.851,1.438
					c25.831,6.346,51.915-9.449,58.261-35.28l13.205-53.748c16.723,2.654,30.854,1.091,38.088-5.933
					C1154.337,1205.424,1158.4,1173.846,1153.138,1122.249z"/>
				<path style="fill:#363E44;" d="M1191.156,980.521c-9.948-0.783-19.897-1.567-29.845-2.35
					c-0.274,3.573-2.923,16.543-11.953,26.369c1.222-13.949-2.168-22.246-5.041-27.707c-36.374-2.864-72.748-5.729-109.122-8.593
					c1.52,3.889,5.027,14.413,1.677,27c-5.055,18.996-21.597,27.195-24.152,28.41c-29.489,19.42-46.107,52.731-42.833,86.413
					c3.942,40.575,34.931,62.943,39.671,66.247c7.763,0.774,15.728,1.443,23.882,1.99c15.631,1.048,30.657,1.556,45.018,1.643
					c-11.884-7.439-16.048-20.835-14.488-33.471c1.709-13.844,15.325-26.424,29.427-23.513c8.956,1.849,15.135,8.288,18.072,24.52
					c5.908-1.503,12.984-3.688,18.892-5.191l-10.756-46.403c2.44-0.532,58.344-13.671,73.066-62.922
					C1199.52,1010.057,1194.305,989.888,1191.156,980.521z"/>
				<path style="fill:#363E44;" d="M1104.341,1223.845c-0.07,0-0.142-0.008-0.214-0.023c-0.539-0.117-0.882-0.65-0.765-1.19
					l4.312-19.805c0.118-0.54,0.645-0.881,1.19-0.765c0.539,0.117,0.882,0.65,0.765,1.19l-4.312,19.805
					C1105.215,1223.525,1104.801,1223.845,1104.341,1223.845z"/>
				<path style="fill:#363E44;" d="M1091.972,1158.419c-0.354,0-0.696-0.188-0.879-0.521c-1.642-3.004-3.07-5.733-4.582-8.623
					c-1.223-2.336-2.483-4.745-3.921-7.419c-0.262-0.486-0.079-1.093,0.407-1.354c0.484-0.261,1.093-0.079,1.354,0.407
					c1.441,2.681,2.705,5.096,3.931,7.438c1.508,2.881,2.933,5.603,4.566,8.591c0.265,0.484,0.086,1.092-0.398,1.357
					C1092.298,1158.38,1092.134,1158.419,1091.972,1158.419z"/>
			</g>
			<g>
				<path style="fill:#8B865C;" d="M1130.135,1703.911c7.189,53.514,13.533,109.001,18.789,166.362
					c7.089,77.375,18.169,220.771,20.656,291.838c-109.085-1.435-166.02,2.133-262.187-0.738
					c-4.784-27.75-30.881-178.555-37.802-200.197c-11.247,20.871-45.683,179.426-56.93,200.296
					c-95.21,0.877-167.934,0.877-272.713-0.568c22.647-72.214,97.743-352.872,142.343-439.064
					c25.129-48.563,51.302-92.622,77.236-132.246C883.063,1627.7,1006.599,1665.805,1130.135,1703.911z"/>
				<path style="fill:#9E9569;" d="M949.984,1807.553l145.833,22.548l-11.051,71.475c-6.227,40.271-43.92,67.869-84.191,61.642
					c-40.271-6.227-67.869-43.92-61.642-84.191L949.984,1807.553z"/>
			</g>
			<g>
				<path style="fill:#84524D;" d="M1331.896,1372.958c173.101,83.541,256.092,150.881,219.119,213.817
					c-21.448,36.509-135.786,29.006-275.86-29.676C1292.845,1498.992,1308.935,1442.786,1331.896,1372.958z"/>
				<path style="fill:#84524D;" d="M683.443,1269.41c-220.117,88.521-322.855,155.415-285.071,224.563
					c21.918,40.112,158.965,42.628,336.065-19.28C719.558,1411.092,703.394,1345.864,683.443,1269.41z"/>
				<path style="fill:#363E44;" d="M463.485,1376.434c-0.325,0-0.645-0.158-0.836-0.45c-0.304-0.461-0.176-1.082,0.285-1.385
					c42.247-27.797,105.251-58.841,192.612-94.906c0.51-0.209,1.095,0.031,1.307,0.543c0.21,0.51-0.033,1.095-0.543,1.306
					c-87.243,36.016-150.137,67.002-192.276,94.728C463.864,1376.381,463.674,1376.434,463.485,1376.434z"/>
				<g>
					<path style="fill:#EFBC73;" d="M629.457,1261.674c0,0,204.855-49.208,380.353-12.739
						c149.576,31.083,364.726,145.183,364.726,145.183l-54.893,232.826l-92.419-11.627l-23.29,175.965L662.33,1687.025
						l26.504-152.973l-61.055-1.752L629.457,1261.674z"/>
				</g>
			</g>
			<g>
				<path style="fill:#84524D;" d="M1400.579,1477.882c8.445-46.527,29.469-154.988,52.24-234.145
					c23.914-83.131,46.888-149.275,72.724-145.926c10.142,1.315,14.353,11.961,12.919,21.766c2.928-1.773,12.373-5.269,20.547-0.214
					c12.098,7.481,9.49,19.235,9.672,20.379c0.944-0.681,11.319-7.744,20.265-4.107c10.077,4.096,14.213,12.578,14.385,21.114
					c2.395-1.619,11.839-6.693,20.334-2.944c8.738,3.856,15.062,14.225,12.165,23.761c-5.314,17.494-22.102,69.18-27.206,95.33
					c-10.045,51.458-21.188,238.986-55.363,309.521C1505.443,1534.295,1448.396,1526.004,1400.579,1477.882z"/>
				<path style="fill:#363E44;" d="M1508.995,1480.635c-0.227,0-0.454-0.077-0.642-0.234c-23.52-19.73-55.108-40.488-96.569-63.459
					c-0.483-0.268-0.658-0.876-0.391-1.359c0.268-0.484,0.878-0.657,1.359-0.39c41.575,23.035,73.267,43.863,96.886,63.677
					c0.423,0.355,0.479,0.986,0.124,1.409C1509.564,1480.513,1509.281,1480.635,1508.995,1480.635z"/>
				<path style="fill:#363E44;" d="M1516.004,1143.001c-0.143,0-0.289-0.031-0.427-0.096l-13.093-6.195
					c-0.499-0.236-0.712-0.833-0.477-1.332c0.235-0.498,0.832-0.713,1.332-0.476l13.093,6.195c0.499,0.236,0.713,0.833,0.477,1.332
					C1516.738,1142.789,1516.379,1143.001,1516.004,1143.001z"/>
				<path style="fill:#363E44;" d="M1549.248,1158.673c-0.143,0-0.289-0.031-0.427-0.096l-13.093-6.195
					c-0.499-0.236-0.712-0.833-0.477-1.332c0.236-0.498,0.832-0.713,1.332-0.476l13.093,6.195c0.499,0.236,0.713,0.833,0.477,1.332
					C1549.982,1158.462,1549.623,1158.673,1549.248,1158.673z"/>
				<path style="fill:#363E44;" d="M1583.274,1174.26c-0.143,0-0.289-0.031-0.427-0.096l-13.093-6.195
					c-0.499-0.236-0.713-0.833-0.477-1.332c0.235-0.498,0.833-0.713,1.332-0.476l13.093,6.195c0.499,0.236,0.712,0.833,0.477,1.332
					C1584.009,1174.048,1583.649,1174.26,1583.274,1174.26z"/>
				<path style="fill:#363E44;" d="M1613.842,1189.03c-0.143,0-0.289-0.031-0.427-0.096l-13.093-6.195
					c-0.499-0.236-0.712-0.833-0.477-1.332c0.236-0.498,0.832-0.713,1.332-0.476l13.093,6.195c0.499,0.236,0.713,0.833,0.477,1.332
					C1614.576,1188.819,1614.217,1189.03,1613.842,1189.03z"/>
			</g>
		</g>
	</g>
</g>
</svg>
