<?xml version="1.0" encoding="utf-8"?>
<!-- Generator: Adobe Illustrator 27.5.0, SVG Export Plug-In . SVG Version: 6.00 Build 0)  -->
<svg version="1.1" id="Layer_1" xmlns="http://www.w3.org/2000/svg" xmlns:xlink="http://www.w3.org/1999/xlink" x="0px" y="0px"
	 viewBox="0 0 451 451" style="enable-background:new 0 0 451 451;" xml:space="preserve">
<g>
	<g>
		<polygon style="fill:#F4D4C3;" points="403.569,308.77 225.3,411.694 47.258,309.293 225.527,205.783 		"/>
		<polygon style="fill:#D1AD99;" points="47.258,309.293 47.258,318.79 225.3,421.191 225.3,411.694 		"/>
		<polygon style="fill:#E0C1AD;" points="403.569,318.267 403.742,308.657 225.3,411.694 225.3,421.191 		"/>
	</g>
	<path style="opacity:0.5;fill:#E0C1AD;" d="M234.023,305.119c-5.091,8.538-4.091,11.693,1.268,13.735
		c5.36,2.042,19.588-6.073,31.604-13.735c12.016-7.662,28.997-17.662,22.208-24.067c-5.515-5.203-7.638-9.323-18.749-4.86
		C259.243,280.655,239.114,296.58,234.023,305.119z"/>
	<polygon style="opacity:0.5;fill:#E0C1AD;" points="230.085,331.473 167.504,367.604 86.43,320.796 149.011,284.665 	"/>
	<g>
		<g>
			<polygon style="fill:#E0C1AD;" points="54.208,312.979 226.177,213.799 226.177,37.513 54.208,136.782 			"/>
			<polygon style="fill:#D1AD99;" points="54.208,136.782 47.258,133.097 47.258,309.293 54.208,312.979 			"/>
			<polygon style="fill:#F4D4C3;" points="226.177,29.809 226.177,37.513 54.208,136.782 47.258,133.097 			"/>
		</g>
		<g>
			<polygon style="fill:#E0C1AD;" points="396.792,136.146 403.742,132.46 403.742,308.657 396.792,312.343 			"/>
			<polygon style="fill:#D1AD99;" points="396.792,312.343 226.177,213.799 226.177,37.513 396.792,136.146 			"/>
			<polygon style="fill:#FCE265;" points="388.746,317.168 218.131,218.625 218.131,42.338 388.746,140.971 			"/>
			<polygon style="fill:#F4D4C3;" points="226.177,29.809 219.509,33.658 396.792,136.146 403.742,132.46 			"/>
		</g>
	</g>
	<polygon style="fill:#FCD535;" points="396.792,136.146 388.746,140.971 388.746,317.168 396.792,312.343 	"/>
	<polygon style="fill:#FFED9F;" points="226.177,37.513 218.131,42.338 388.746,140.971 396.792,136.146 	"/>
	<g>
		<polygon style="fill:#90969E;" points="397.49,248.188 388.746,253.452 388.746,258.449 397.49,253.186 		"/>
		<polygon style="fill:#A9AEB7;" points="380.7,248.626 388.746,253.452 388.746,258.449 380.7,253.624 		"/>
		<polygon style="fill:#BEC4CC;" points="381.398,248.224 380.7,248.626 388.746,253.452 389.456,253.026 		"/>
		<polygon style="fill:#BEC4CC;" points="396.792,247.786 397.49,248.188 388.746,253.452 388.036,253.026 		"/>
	</g>
	<g>
		<polygon style="fill:#90969E;" points="397.49,185.916 388.746,191.179 388.746,196.177 397.49,190.913 		"/>
		<polygon style="fill:#A9AEB7;" points="380.7,186.354 388.746,191.179 388.746,196.177 380.7,191.352 		"/>
		<polygon style="fill:#BEC4CC;" points="381.398,185.952 380.7,186.354 388.746,191.179 389.456,190.753 		"/>
		<polygon style="fill:#BEC4CC;" points="396.792,185.514 397.49,185.916 388.746,191.179 388.036,190.753 		"/>
	</g>
	<g>
		<polygon style="fill:#90969E;" points="355.04,121.486 355.04,297.7 359.636,300.355 359.636,124.142 		"/>
		<polygon style="fill:#BEC4CC;" points="367.852,119.399 358.86,124.616 354.264,121.982 363.261,116.761 		"/>
		<polygon style="fill:#BEC4CC;" points="367.852,118.494 358.86,123.712 354.264,121.077 363.261,115.856 		"/>
		<polygon style="fill:#BEC4CC;" points="347.77,228.882 346.994,229.238 354.264,233.387 354.997,232.974 		"/>
		<polygon style="fill:#BEC4CC;" points="347.77,166.788 346.994,167.143 354.264,171.292 354.997,170.88 		"/>
		<g>
			<polygon style="fill:#A9AEB7;" points="354.264,121.055 354.264,298.174 358.86,300.829 358.86,123.712 			"/>
			<polygon style="fill:#90969E;" points="358.86,300.829 359.636,300.355 359.636,123.238 358.86,123.712 			"/>
		</g>
		<polygon style="fill:#90969E;" points="359.636,235.76 368.414,240.788 368.414,245.785 359.636,240.757 		"/>
		<polygon style="fill:#A9AEB7;" points="346.994,229.238 355.787,234.257 355.787,239.255 346.994,234.236 		"/>
		<g>
			<polygon style="fill:#A9AEB7;" points="357.338,235.219 367.681,241.2 367.681,246.198 357.338,240.217 			"/>
			<polygon style="fill:#90969E;" points="367.681,241.2 368.414,240.788 368.414,245.785 367.681,246.198 			"/>
			<polygon style="fill:#BEC4CC;" points="359.636,235.76 358.86,236.099 367.681,241.2 368.414,240.788 			"/>
		</g>
		<polygon style="fill:#90969E;" points="359.636,173.665 368.414,178.693 368.414,183.691 359.636,178.663 		"/>
		<polygon style="fill:#A9AEB7;" points="346.994,167.143 355.787,172.163 355.787,177.161 346.994,172.141 		"/>
		<g>
			<polygon style="fill:#A9AEB7;" points="357.338,173.124 367.681,179.105 367.681,184.103 357.338,178.122 			"/>
			<polygon style="fill:#90969E;" points="367.681,179.105 368.414,178.693 368.414,183.691 367.681,184.103 			"/>
			<polygon style="fill:#BEC4CC;" points="359.636,173.665 358.86,174.005 367.681,179.105 368.414,178.693 			"/>
		</g>
		<polygon style="fill:#90969E;" points="367.852,118.494 367.852,119.399 358.86,124.616 358.86,123.712 		"/>
	</g>
	<g>
		<polygon style="fill:#90969E;" points="320.906,101.708 320.906,277.923 325.502,280.578 325.502,104.365 		"/>
		<polygon style="fill:#BEC4CC;" points="333.719,99.621 324.726,104.839 320.131,102.204 329.127,96.984 		"/>
		<polygon style="fill:#BEC4CC;" points="333.719,98.716 324.726,103.934 320.131,101.299 329.127,96.079 		"/>
		<polygon style="fill:#BEC4CC;" points="313.636,209.105 312.86,209.46 320.131,213.609 320.863,213.197 		"/>
		<polygon style="fill:#BEC4CC;" points="313.636,147.01 312.86,147.366 320.131,151.515 320.863,151.103 		"/>
		<g>
			<polygon style="fill:#A9AEB7;" points="320.131,101.277 320.131,278.397 324.726,281.052 324.726,103.934 			"/>
			<polygon style="fill:#90969E;" points="324.726,281.052 325.502,280.578 325.502,103.46 324.726,103.934 			"/>
		</g>
		<polygon style="fill:#90969E;" points="325.502,215.982 334.28,221.01 334.28,226.008 325.502,220.98 		"/>
		<polygon style="fill:#A9AEB7;" points="312.86,209.46 321.653,214.48 321.653,219.478 312.86,214.458 		"/>
		<g>
			<polygon style="fill:#A9AEB7;" points="323.204,215.441 333.548,221.423 333.548,226.42 323.204,220.439 			"/>
			<polygon style="fill:#90969E;" points="333.548,221.423 334.28,221.01 334.28,226.008 333.548,226.42 			"/>
			<polygon style="fill:#BEC4CC;" points="325.502,215.982 324.726,216.322 333.548,221.423 334.28,221.01 			"/>
		</g>
		<polygon style="fill:#90969E;" points="325.502,153.888 334.28,158.916 334.28,163.914 325.502,158.886 		"/>
		<polygon style="fill:#A9AEB7;" points="312.86,147.366 321.653,152.385 321.653,157.383 312.86,152.364 		"/>
		<g>
			<polygon style="fill:#A9AEB7;" points="323.204,153.347 333.548,159.328 333.548,164.326 323.204,158.345 			"/>
			<polygon style="fill:#90969E;" points="333.548,159.328 334.28,158.916 334.28,163.914 333.548,164.326 			"/>
			<polygon style="fill:#BEC4CC;" points="325.502,153.888 324.726,154.227 333.548,159.328 334.28,158.916 			"/>
		</g>
		<polygon style="fill:#90969E;" points="333.719,98.716 333.719,99.621 324.726,104.839 324.726,103.934 		"/>
	</g>
	<g>
		<polygon style="fill:#90969E;" points="286.793,81.761 286.793,257.976 291.389,260.63 291.389,84.418 		"/>
		<polygon style="fill:#BEC4CC;" points="299.606,79.674 290.613,84.892 286.017,82.257 295.014,77.037 		"/>
		<polygon style="fill:#BEC4CC;" points="299.606,78.769 290.613,83.987 286.017,81.352 295.014,76.132 		"/>
		<polygon style="fill:#BEC4CC;" points="279.523,189.157 278.747,189.513 286.017,193.662 286.75,193.25 		"/>
		<polygon style="fill:#BEC4CC;" points="279.523,127.063 278.747,127.419 286.017,131.568 286.75,131.155 		"/>
		<g>
			<polygon style="fill:#A9AEB7;" points="286.017,81.33 286.017,258.45 290.613,261.104 290.613,83.987 			"/>
			<polygon style="fill:#90969E;" points="290.613,261.104 291.389,260.63 291.389,83.513 290.613,83.987 			"/>
		</g>
		<polygon style="fill:#90969E;" points="291.389,196.035 300.167,201.063 300.167,206.061 291.389,201.033 		"/>
		<polygon style="fill:#A9AEB7;" points="278.747,189.513 287.54,194.533 287.54,199.53 278.747,194.511 		"/>
		<g>
			<polygon style="fill:#A9AEB7;" points="289.091,195.494 299.435,201.475 299.435,206.473 289.091,200.492 			"/>
			<polygon style="fill:#90969E;" points="299.435,201.475 300.167,201.063 300.167,206.061 299.435,206.473 			"/>
			<polygon style="fill:#BEC4CC;" points="291.389,196.035 290.613,196.374 299.435,201.475 300.167,201.063 			"/>
		</g>
		<polygon style="fill:#90969E;" points="291.389,133.941 300.167,138.969 300.167,143.966 291.389,138.939 		"/>
		<polygon style="fill:#A9AEB7;" points="278.747,127.419 287.54,132.438 287.54,137.436 278.747,132.417 		"/>
		<g>
			<polygon style="fill:#A9AEB7;" points="289.091,133.4 299.435,139.381 299.435,144.379 289.091,138.398 			"/>
			<polygon style="fill:#90969E;" points="299.435,139.381 300.167,138.969 300.167,143.966 299.435,144.379 			"/>
			<polygon style="fill:#BEC4CC;" points="291.389,133.941 290.613,134.28 299.435,139.381 300.167,138.969 			"/>
		</g>
		<polygon style="fill:#90969E;" points="299.606,78.769 299.606,79.674 290.613,84.892 290.613,83.987 		"/>
	</g>
	<g>
		<polygon style="fill:#90969E;" points="252.66,61.984 252.66,238.199 257.255,240.853 257.255,64.641 		"/>
		<polygon style="fill:#BEC4CC;" points="265.472,59.897 256.48,65.115 251.884,62.48 260.88,57.26 		"/>
		<polygon style="fill:#BEC4CC;" points="265.472,58.992 256.48,64.21 251.884,61.575 260.88,56.355 		"/>
		<polygon style="fill:#BEC4CC;" points="245.389,169.38 244.613,169.736 251.884,173.885 252.617,173.473 		"/>
		<polygon style="fill:#BEC4CC;" points="245.389,107.286 244.613,107.642 251.884,111.79 252.617,111.378 		"/>
		<g>
			<polygon style="fill:#A9AEB7;" points="251.884,61.553 251.884,238.673 256.48,241.327 256.48,64.21 			"/>
			<polygon style="fill:#90969E;" points="256.48,241.327 257.255,240.853 257.255,63.736 256.48,64.21 			"/>
		</g>
		<polygon style="fill:#90969E;" points="257.255,176.258 266.034,181.286 266.034,186.284 257.255,181.256 		"/>
		<polygon style="fill:#A9AEB7;" points="244.613,169.736 253.406,174.755 253.406,179.753 244.613,174.734 		"/>
		<g>
			<polygon style="fill:#A9AEB7;" points="254.957,175.717 265.301,181.698 265.301,186.696 254.957,180.715 			"/>
			<polygon style="fill:#90969E;" points="265.301,181.698 266.034,181.286 266.034,186.284 265.301,186.696 			"/>
			<polygon style="fill:#BEC4CC;" points="257.255,176.258 256.48,176.597 265.301,181.698 266.034,181.286 			"/>
		</g>
		<polygon style="fill:#90969E;" points="257.255,114.163 266.034,119.191 266.034,124.189 257.255,119.161 		"/>
		<polygon style="fill:#A9AEB7;" points="244.613,107.642 253.406,112.661 253.406,117.659 244.613,112.64 		"/>
		<g>
			<polygon style="fill:#A9AEB7;" points="254.957,113.623 265.301,119.604 265.301,124.602 254.957,118.621 			"/>
			<polygon style="fill:#90969E;" points="265.301,119.604 266.034,119.191 266.034,124.189 265.301,124.602 			"/>
			<polygon style="fill:#BEC4CC;" points="257.255,114.163 256.48,114.503 265.301,119.604 266.034,119.191 			"/>
		</g>
		<polygon style="fill:#90969E;" points="265.472,58.992 265.472,59.897 256.48,65.115 256.48,64.21 		"/>
	</g>
	<g>
		<polygon style="fill:#A9AEB7;" points="217.355,91.899 231.167,99.826 231.167,104.824 217.355,96.891 		"/>
		<polygon style="fill:#90969E;" points="231.167,99.826 231.9,99.414 231.9,104.412 231.167,104.824 		"/>
		<polygon style="fill:#BEC4CC;" points="218.131,91.559 217.355,91.899 231.167,99.826 231.9,99.414 		"/>
	</g>
	<g>
		<polygon style="fill:#A9AEB7;" points="217.355,153.983 231.167,161.911 231.167,166.908 217.355,158.975 		"/>
		<polygon style="fill:#90969E;" points="231.167,161.911 231.9,161.498 231.9,166.496 231.167,166.908 		"/>
		<polygon style="fill:#BEC4CC;" points="218.131,153.643 217.355,153.983 231.167,161.911 231.9,161.498 		"/>
	</g>
	<g>
		<polygon style="fill:#E2AC71;" points="273.339,254.395 214.594,220.479 214.594,132.602 273.339,166.518 		"/>
		<polygon style="fill:#C9905D;" points="273.339,166.518 275.207,165.431 275.207,253.308 273.339,254.395 		"/>
		<polygon style="fill:#EFB881;" points="216.463,131.515 214.594,132.602 273.339,166.518 275.207,165.431 		"/>
	</g>
	<g>
		<polygon style="fill:#E2AC71;" points="273.339,166.518 214.594,132.602 214.594,44.724 273.339,78.641 		"/>
		<polygon style="fill:#C9905D;" points="273.339,78.641 275.207,77.553 275.207,165.431 273.339,166.518 		"/>
		<polygon style="fill:#EFB881;" points="216.463,43.638 214.594,44.724 273.339,78.641 275.207,77.553 		"/>
	</g>
	<g>
		<polygon style="fill:#E2AC71;" points="332.083,288.311 273.339,254.395 273.339,166.518 332.083,200.434 		"/>
		<polygon style="fill:#C9905D;" points="332.083,200.434 333.951,199.347 333.951,287.224 332.083,288.311 		"/>
		<polygon style="fill:#EFB881;" points="275.207,165.431 273.339,166.518 332.083,200.434 333.951,199.347 		"/>
	</g>
	<polygon style="opacity:0.5;fill:#E0C1AD;" points="257.928,257.732 217.449,280.535 180.39,259.138 220.868,236.335 	"/>
	<g>
		<path style="fill:#4B4B7F;" d="M252.318,156.596c0,0.32-0.195,0.467-0.434,0.328c-0.24-0.139-0.434-0.51-0.434-0.83
			c0-0.32,0.194-0.467,0.434-0.329C252.124,155.904,252.318,156.275,252.318,156.596z"/>
		<path style="fill:#4B4B7F;" d="M252.318,173.149c0,0.32-0.195,0.467-0.434,0.329c-0.24-0.139-0.434-0.51-0.434-0.83
			c0-0.32,0.194-0.467,0.434-0.328C252.124,172.458,252.318,172.829,252.318,173.149z"/>
		<path style="fill:#4B4B7F;" d="M252.318,189.703c0,0.32-0.195,0.467-0.434,0.329c-0.24-0.139-0.434-0.51-0.434-0.83
			c0-0.32,0.194-0.467,0.434-0.329C252.124,189.012,252.318,189.383,252.318,189.703z"/>
		<path style="fill:#4B4B7F;" d="M252.318,206.257c0,0.32-0.195,0.467-0.434,0.328c-0.24-0.139-0.434-0.51-0.434-0.83
			c0-0.32,0.194-0.467,0.434-0.328C252.124,205.566,252.318,205.937,252.318,206.257z"/>
		<path style="fill:#4B4B7F;" d="M252.318,222.804c0,0.32-0.195,0.467-0.434,0.329c-0.24-0.139-0.434-0.51-0.434-0.83
			c0-0.32,0.194-0.467,0.434-0.329C252.124,222.112,252.318,222.484,252.318,222.804z"/>
		<path style="fill:#4B4B7F;" d="M252.318,239.35c0,0.32-0.195,0.467-0.434,0.329c-0.24-0.139-0.434-0.51-0.434-0.83
			c0-0.32,0.194-0.467,0.434-0.329C252.124,238.659,252.318,239.031,252.318,239.35z"/>
	</g>
	<g>
		<path style="fill:#4B4B7F;" d="M252.318,68.411c0,0.32-0.195,0.467-0.434,0.328c-0.24-0.139-0.434-0.51-0.434-0.83
			c0-0.32,0.194-0.467,0.434-0.328C252.124,67.72,252.318,68.091,252.318,68.411z"/>
		<path style="fill:#4B4B7F;" d="M252.318,84.965c0,0.32-0.195,0.467-0.434,0.328c-0.24-0.139-0.434-0.51-0.434-0.83
			c0-0.32,0.194-0.467,0.434-0.328C252.124,84.274,252.318,84.645,252.318,84.965z"/>
		<path style="fill:#4B4B7F;" d="M252.318,101.519c0,0.32-0.195,0.467-0.434,0.328c-0.24-0.139-0.434-0.51-0.434-0.83
			s0.194-0.467,0.434-0.328C252.124,100.828,252.318,101.199,252.318,101.519z"/>
		<path style="fill:#4B4B7F;" d="M252.318,118.073c0,0.32-0.195,0.467-0.434,0.328c-0.24-0.138-0.434-0.51-0.434-0.83
			c0-0.32,0.194-0.467,0.434-0.328C252.124,117.382,252.318,117.753,252.318,118.073z"/>
		<path style="fill:#4B4B7F;" d="M252.318,134.62c0,0.32-0.195,0.467-0.434,0.328c-0.24-0.138-0.434-0.51-0.434-0.83
			c0-0.32,0.194-0.467,0.434-0.328C252.124,133.928,252.318,134.3,252.318,134.62z"/>
		<path style="fill:#4B4B7F;" d="M252.318,151.166c0,0.32-0.195,0.467-0.434,0.329c-0.24-0.139-0.434-0.51-0.434-0.83
			c0-0.32,0.194-0.467,0.434-0.328C252.124,150.475,252.318,150.846,252.318,151.166z"/>
	</g>
	<g>
		<path style="fill:#4B4B7F;" d="M217.79,136.906c0,0.32-0.195,0.467-0.434,0.329c-0.24-0.139-0.434-0.51-0.434-0.83
			s0.194-0.467,0.434-0.329C217.595,136.214,217.79,136.586,217.79,136.906z"/>
		<path style="fill:#4B4B7F;" d="M217.79,153.46c0,0.32-0.195,0.467-0.434,0.328c-0.24-0.139-0.434-0.51-0.434-0.83
			c0-0.32,0.194-0.467,0.434-0.328C217.595,152.768,217.79,153.14,217.79,153.46z"/>
		<path style="fill:#4B4B7F;" d="M217.79,170.014c0,0.32-0.195,0.467-0.434,0.328c-0.24-0.138-0.434-0.51-0.434-0.83
			c0-0.32,0.194-0.467,0.434-0.329C217.595,169.322,217.79,169.694,217.79,170.014z"/>
		<path style="fill:#4B4B7F;" d="M217.79,186.568c0,0.32-0.195,0.467-0.434,0.328c-0.24-0.139-0.434-0.51-0.434-0.83
			c0-0.32,0.194-0.467,0.434-0.328C217.595,185.876,217.79,186.248,217.79,186.568z"/>
		<path style="fill:#4B4B7F;" d="M217.79,203.115c0,0.32-0.195,0.467-0.434,0.328c-0.24-0.138-0.434-0.51-0.434-0.83
			c0-0.32,0.194-0.467,0.434-0.329C217.595,202.423,217.79,202.794,217.79,203.115z"/>
		<path style="fill:#4B4B7F;" d="M217.79,219.661c0,0.32-0.195,0.467-0.434,0.328c-0.24-0.139-0.434-0.51-0.434-0.83
			c0-0.32,0.194-0.467,0.434-0.328C217.595,218.969,217.79,219.341,217.79,219.661z"/>
	</g>
	<g>
		<path style="fill:#4B4B7F;" d="M217.79,48.722c0,0.32-0.195,0.467-0.434,0.328c-0.24-0.138-0.434-0.51-0.434-0.83
			c0-0.32,0.194-0.467,0.434-0.329C217.595,48.03,217.79,48.402,217.79,48.722z"/>
		<path style="fill:#4B4B7F;" d="M217.79,65.276c0,0.32-0.195,0.467-0.434,0.328c-0.24-0.139-0.434-0.51-0.434-0.83
			c0-0.32,0.194-0.467,0.434-0.328C217.595,64.584,217.79,64.956,217.79,65.276z"/>
		<path style="fill:#4B4B7F;" d="M217.79,81.83c0,0.32-0.195,0.467-0.434,0.328c-0.24-0.139-0.434-0.51-0.434-0.83
			s0.194-0.467,0.434-0.328C217.595,81.138,217.79,81.51,217.79,81.83z"/>
		<path style="fill:#4B4B7F;" d="M217.79,98.384c0,0.32-0.195,0.467-0.434,0.328c-0.24-0.138-0.434-0.51-0.434-0.83
			c0-0.32,0.194-0.467,0.434-0.328C217.595,97.692,217.79,98.064,217.79,98.384z"/>
		<path style="fill:#4B4B7F;" d="M217.79,114.93c0,0.32-0.195,0.467-0.434,0.329c-0.24-0.139-0.434-0.51-0.434-0.83
			c0-0.32,0.194-0.467,0.434-0.329C217.595,114.239,217.79,114.61,217.79,114.93z"/>
		<path style="fill:#4B4B7F;" d="M217.79,131.477c0,0.32-0.195,0.467-0.434,0.329c-0.24-0.139-0.434-0.51-0.434-0.83
			c0-0.32,0.194-0.467,0.434-0.329C217.595,130.786,217.79,131.157,217.79,131.477z"/>
	</g>
	<g>
		<path style="fill:#4B4B7F;" d="M286.452,176.599c0,0.32-0.194,0.467-0.435,0.328c-0.24-0.139-0.434-0.51-0.434-0.83
			c0-0.32,0.194-0.467,0.434-0.328C286.258,175.908,286.452,176.279,286.452,176.599z"/>
		<path style="fill:#4B4B7F;" d="M286.452,193.153c0,0.32-0.194,0.467-0.435,0.329c-0.24-0.139-0.434-0.51-0.434-0.83
			c0-0.32,0.194-0.467,0.434-0.329C286.258,192.462,286.452,192.833,286.452,193.153z"/>
		<path style="fill:#4B4B7F;" d="M286.452,209.707c0,0.32-0.194,0.467-0.435,0.328c-0.24-0.139-0.434-0.51-0.434-0.83
			c0-0.32,0.194-0.467,0.434-0.328C286.258,209.016,286.452,209.387,286.452,209.707z"/>
		<path style="fill:#4B4B7F;" d="M286.452,226.261c0,0.32-0.194,0.467-0.435,0.328c-0.24-0.138-0.434-0.51-0.434-0.83
			c0-0.32,0.194-0.467,0.434-0.328C286.258,225.569,286.452,225.941,286.452,226.261z"/>
		<path style="fill:#4B4B7F;" d="M286.452,242.808c0,0.32-0.194,0.467-0.435,0.328c-0.24-0.139-0.434-0.51-0.434-0.83
			c0-0.32,0.194-0.467,0.434-0.328C286.258,242.116,286.452,242.488,286.452,242.808z"/>
		<path style="fill:#4B4B7F;" d="M286.452,259.354c0,0.32-0.194,0.467-0.435,0.328c-0.24-0.139-0.434-0.51-0.434-0.83
			c0-0.32,0.194-0.467,0.434-0.329C286.258,258.663,286.452,259.034,286.452,259.354z"/>
	</g>
	<g>
		<path style="fill:#4B4B7F;" d="M320.565,196.377c0,0.32-0.195,0.467-0.434,0.328c-0.24-0.138-0.434-0.51-0.434-0.83
			c0-0.32,0.194-0.467,0.434-0.328C320.371,195.685,320.565,196.057,320.565,196.377z"/>
		<path style="fill:#4B4B7F;" d="M320.565,212.93c0,0.32-0.195,0.467-0.434,0.328c-0.24-0.138-0.434-0.51-0.434-0.83
			c0-0.32,0.194-0.467,0.434-0.328C320.371,212.239,320.565,212.611,320.565,212.93z"/>
		<path style="fill:#4B4B7F;" d="M320.565,229.484c0,0.32-0.195,0.467-0.434,0.328c-0.24-0.139-0.434-0.51-0.434-0.83
			c0-0.32,0.194-0.467,0.434-0.328C320.371,228.793,320.565,229.165,320.565,229.484z"/>
		<path style="fill:#4B4B7F;" d="M320.565,246.038c0,0.32-0.195,0.467-0.434,0.329c-0.24-0.139-0.434-0.51-0.434-0.83
			c0-0.32,0.194-0.467,0.434-0.329C320.371,245.347,320.565,245.718,320.565,246.038z"/>
		<path style="fill:#4B4B7F;" d="M320.565,262.585c0,0.32-0.195,0.467-0.434,0.329c-0.24-0.139-0.434-0.51-0.434-0.83
			c0-0.32,0.194-0.467,0.434-0.329C320.371,261.893,320.565,262.265,320.565,262.585z"/>
		<path style="fill:#4B4B7F;" d="M320.565,279.132c0,0.32-0.195,0.467-0.434,0.328c-0.24-0.138-0.434-0.51-0.434-0.83
			c0-0.32,0.194-0.467,0.434-0.328C320.371,278.44,320.565,278.812,320.565,279.132z"/>
	</g>
	<g>
		<g>
			<path style="fill:#373951;" d="M213.996,238.155v2.209c0,1.179,0.965,2.144,2.144,2.144c1.18,0,2.145-0.965,2.145-2.144v-2.209
				H213.996z"/>
			<path style="fill:#474864;" d="M218.285,238.155c0,0.672-0.96,1.217-2.144,1.217c-1.184,0-2.144-0.545-2.144-1.217
				c0-0.672,0.96-1.217,2.144-1.217C217.325,236.938,218.285,237.483,218.285,238.155z"/>
			<path style="fill:#E2D5DA;" d="M217.474,237.965c0,0.418-0.597,0.757-1.333,0.757c-0.736,0-1.333-0.339-1.333-0.757
				c0-0.418,0.597-0.757,1.333-0.757C216.877,237.209,217.474,237.548,217.474,237.965z"/>
			<path style="fill:#FFFFFF;" d="M217.474,237.965v-69.131c0-0.733-0.6-1.333-1.333-1.333c-0.733,0-1.333,0.6-1.333,1.333v69.131
				H217.474z"/>
		</g>
		<g>
			<path style="fill:#373951;" d="M186.995,256.257l-0.534,2.144c-0.285,1.145,0.418,2.314,1.563,2.599
				c1.145,0.285,2.314-0.418,2.599-1.563l0.534-2.144L186.995,256.257z"/>
			<path style="fill:#474864;" d="M191.156,257.293c-0.162,0.652-1.226,0.949-2.375,0.663c-1.149-0.286-1.949-1.047-1.787-1.699
				c0.162-0.652,1.226-0.949,2.375-0.663C190.519,255.88,191.319,256.641,191.156,257.293z"/>
			<path style="fill:#F4EEF0;" d="M190.213,257.031c-0.087,0.348-0.653,0.506-1.266,0.353c-0.613-0.152-1.039-0.558-0.952-0.906
				c0.086-0.348,0.653-0.506,1.266-0.353C189.873,256.278,190.299,256.683,190.213,257.031z"/>
		</g>
		<g>
			<path style="fill:#F4EEF0;" d="M229.492,143.319c2.305-0.904,5.098-0.469,8.088,1.258l6.939,3.772
				c6.292,3.632,8.32,10.148,5.874,18.809l-0.21,0.663c0.864-0.22,1.732-0.426,2.602-0.621c2.457-9.397-0.042-16.796-7.104-20.874
				l-6.939-3.772c-3.621-2.091-7.115-2.577-10.1-1.407c-3.273,1.282-5.801,4.533-7.308,9.396l-33.339,105.934
				c0.711,0.31,1.219-0.023,2.218,0.552l33.346-105.792C224.851,147.072,226.902,144.333,229.492,143.319z"/>
		</g>
		<g>
			<polygon style="fill:#E5D6DC;" points="219.104,249.54 190.19,232.847 201.684,226.211 230.597,242.904 			"/>
			<polygon style="fill:#D3BCC5;" points="190.19,232.847 190.19,235.443 219.104,252.136 219.104,249.54 			"/>
			<polygon style="fill:#C1A7B1;" points="230.597,242.904 230.597,245.5 219.104,252.136 219.104,249.54 			"/>
		</g>
		<g>
			<polygon style="fill:#E5D6DC;" points="224.851,231.301 195.937,214.607 207.43,207.971 236.344,224.665 			"/>
			<polygon style="fill:#D3BCC5;" points="195.937,214.607 195.937,217.203 224.851,233.896 224.851,231.301 			"/>
			<polygon style="fill:#C1A7B1;" points="236.344,224.665 236.344,227.261 224.851,233.896 224.851,231.301 			"/>
		</g>
		<g>
			<polygon style="fill:#E5D6DC;" points="230.597,212.054 201.684,195.36 213.177,188.724 242.091,205.418 			"/>
			<polygon style="fill:#D3BCC5;" points="201.684,195.36 201.684,197.956 230.597,214.649 230.597,212.054 			"/>
			<polygon style="fill:#C1A7B1;" points="242.091,205.418 242.091,208.014 230.597,214.649 230.597,212.054 			"/>
		</g>
		<g>
			<polygon style="fill:#E5D6DC;" points="234.196,195.087 205.283,178.394 226.733,166.108 255.647,182.801 			"/>
			<polygon style="fill:#D3BCC5;" points="205.283,178.394 205.283,180.989 234.196,197.683 234.196,195.087 			"/>
			<polygon style="fill:#C1A7B1;" points="255.647,182.801 255.647,185.397 234.196,197.683 234.196,195.087 			"/>
		</g>
		<g>
			<path style="fill:#373951;" d="M215.813,272.878l-0.534,2.144c-0.285,1.144,0.418,2.314,1.563,2.599
				c1.144,0.285,2.314-0.418,2.599-1.563l0.534-2.143L215.813,272.878z"/>
			<path style="fill:#474864;" d="M219.975,273.914c-0.163,0.652-1.226,0.949-2.375,0.662c-1.149-0.286-1.949-1.047-1.787-1.699
				c0.162-0.652,1.226-0.949,2.375-0.663C219.337,272.501,220.137,273.262,219.975,273.914z"/>
			<path style="fill:#F4EEF0;" d="M219.031,273.652c-0.087,0.348-0.653,0.506-1.266,0.353c-0.613-0.153-1.039-0.558-0.952-0.906
				c0.087-0.348,0.653-0.506,1.266-0.353C218.691,272.899,219.118,273.304,219.031,273.652z"/>
		</g>
		<path style="fill:#F4EEF0;" d="M246.838,147.06c-0.502,0.601-1.004,1.202-1.499,1.808c5.637,3.716,7.389,10.022,5.054,18.291
			l-33.525,105.845c0.718,0.295,1.452,0.303,2.146,0.702l33.614-105.881C255.213,158.669,253.153,151.356,246.838,147.06z"/>
		<g>
			<path style="fill:#373951;" d="M244.111,256.479v2.209c0,1.179,0.965,2.144,2.144,2.144c1.179,0,2.144-0.965,2.144-2.144v-2.209
				H244.111z"/>
			<ellipse style="fill:#474864;" cx="246.255" cy="256.479" rx="2.144" ry="1.217"/>
			<path style="fill:#FFFFFF;" d="M247.588,256.289c0,0.418-0.597,0.756-1.333,0.756c-0.736,0-1.333-0.339-1.333-0.756
				c0-0.418,0.597-0.757,1.333-0.757C246.991,255.533,247.588,255.872,247.588,256.289z"/>
			<path style="fill:#FFFFFF;" d="M247.588,256.289v-69.131c0-0.733-0.6-1.333-1.333-1.333c-0.733,0-1.333,0.6-1.333,1.333v69.131
				H247.588z"/>
		</g>
		<path style="fill:#4B4B7F;" d="M247.288,189.816c0,0.5-0.304,1.081-0.679,1.298c-0.375,0.217-0.679-0.013-0.679-0.514
			c0-0.5,0.304-1.081,0.679-1.298C246.984,189.087,247.288,189.316,247.288,189.816z"/>
	</g>
	<g>
		<path style="fill:#6D3215;" d="M262.913,276.233c0,0-6.31,1.165-7.809,3.167c-1.499,2.001-0.585,4.251-0.875,6.716
			c-0.29,2.465,0.766,4.83,3.41,4.714c2.319-0.102,2.231-2.147,2.623-3.47c0,0,6.515-0.687,9.85-3.007
			C273.446,282.033,268.4,275.615,262.913,276.233z"/>
		<path style="fill:#3C89CE;" d="M283.642,245.863c-5.223-1.16-11.682,0.794-17.184,3.352c-0.128,0.008-0.263,0.042-0.402,0.108
			c-6.585,3.165-22.039,3.056-21.959,3.286c-0.753,1.602-2.286,8.153-1.114,12.613c1.039,3.951,4.498,7.789,9.216,7.188
			c3.496,2.145,7.459,2.364,11.052,1.015c-0.075,0.108-0.625,0.892-1.361,1.999c2.155-0.178,4.358,0.969,5.71,2.643
			c0.711,0.881,1.397,2.146,1.864,3.493c2.078-1.546,4.126-3.244,5.574-4.339c2.7-2.042,11.973-12.093,11.973-20.554
			C290.435,253.473,289.679,247.204,283.642,245.863z"/>
		<path style="fill:#45A0D8;" d="M284.711,282.56c-0.3-3.709-2.55-8.895-4.122-11.244c-4.141-6.188-7.493-15.271-11.93-18.11
			c-5.35-3.424-17.367-0.735-17.772-0.951c0.101,2.921-1.016,9.897-0.571,13.124c0.338,2.447,0.906,5.128,1.884,7.032
			c1.303,2.536,4.833,4.785,10.037,4.93c2.111,3.625,5.405,6.206,6.34,6.665c-1.625,1.28-3.455,2.203-6.195,4.789
			c-3.946,3.723-8.831,7.883-13.605,11.113c1.212,0.674,2.371,1.755,2.852,2.402c0.729,0.977,1.21,1.84,1.472,3.45
			c8.932-2.042,16.009-6.715,23.347-11.89c2.639-1.861,4.074-3.77,5.951-6.09C286.009,287.2,285.845,283.622,284.711,282.56z"/>
		<path style="fill:#D6C9D4;" d="M263.055,230.009c1.282-6.186,2.141-14.711,2.141-14.711s-6.541-7.14-12.996,0.987
			c-1.995,2.511-1.839,5.898-2.411,7.273c-0.268,0.463-1.334,2.165-1.334,4.113C252.233,231.912,258.473,231.711,263.055,230.009z"
			/>
		<g>
			<path style="fill:#FFC9B6;" d="M275.99,218.674l-5.246,4.302c-2.829-1.007-4.983-4.349-6.197-7.551
				c1.035-0.829,4.705-2.927,4.963-4.037c-1.091-3.051,0.56-5.621,3.392-8.361c2.968-2.872,8.322-2.844,11.535-0.308
				c0.469,0.184,2.865,1.909,2.544,4.819c-0.358,3.246-2.212,11.046-4.97,12.452C280.087,220.971,277.843,219.375,275.99,218.674z"
				/>
			<path style="fill:#6D3215;" d="M268.439,202.982c0.276-2.477,1.624-4.698,4.282-5.915c2.994-1.371,8.335-1.566,10.745,1.132
				c0.046-0.085,0.064-0.183,0.124-0.26c0.744-0.957,1.968-0.808,2.844-0.143c0.691,0.524,1.211,1.289,1.548,2.137
				c0.517-0.168,1.099-0.177,1.592,0.027c1.739,0.72,1.673,3.186,1.059,4.624c-1.274,2.986-5.987,6.251-9.463,5.436
				c0.173,1.739-0.675,2.682-2.068,3.82c-2.175,1.78-5.304,1.875-7.769,0.653c-2.789-1.383-5.327-4.578-5.128-7.831
				C266.299,205.136,267.183,203.698,268.439,202.982z"/>
			<path style="fill:#FFC9B6;" d="M282.399,210.803c0,0-0.63-2.035-2.548-0.761c-1.917,1.274,0.376,5.068,0.376,5.068
				L282.399,210.803z"/>
		</g>
		<path style="fill:#F7F4F9;" d="M272.875,221.229c-6.689-5.145-6.463-5.728-9.679-7.119c-2.821-1.22-10.978,6.342-13.541,14.241
			c-1.725,5.314-4.35,16.942-5.556,26.095c6.438,5.875,16.475,4.672,24.257,1.088c0.992-1.094,4.461-5.194,7.272-11.905
			c2.603-6.215,3.064-7.85,3.674-11.038C279.91,229.402,279.564,226.374,272.875,221.229z"/>
		<path style="fill:#6D3215;" d="M253.36,296.53c0,0-4.851-0.336-6.832,0c-1.98,0.336-2.27,3.914-4.01,5.605
			c-1.74,1.691-6.778,2.561-8.12,6.041c-1.341,3.48,1.108,8.864,4.256,7.54c5.168-2.175,15.606-10.874,15.606-10.874
			S256.662,301.124,253.36,296.53z"/>
		<g>
			<path style="fill:#373951;" d="M380.524,322.103c-2.478-3.07-8.258-7.961-19.128-6.193c-9.78,1.585-15.671,2.542-20.579-8.605
				c-6.04-13.716-22.978-25.392-37.758-26.029c-1.35-0.061-2.638-0.03-3.864,0.077c0.29,2.188,0.302,4.263-0.113,6.149
				c-0.824,3.749-3.145,6.601-6.361,7.825c-2.424,0.921-5.045,0.755-6.678-0.429c-1.76-1.275-2.326-3.275-1.556-5.49
				c1.355-3.891,6.516-7.66,14.198-8.457c-0.598-4.003-2.09-8.391-3.553-12.686c-1.039-3.05-2.111-6.203-2.814-9.109
				c-3.189-13.174-2.271-25.763-2.262-25.889l0.45,0.035c-0.011,0.125-0.921,12.646,2.248,25.749c0.7,2.885,1.77,6.029,2.804,9.069
				c1.471,4.323,2.974,8.739,3.575,12.788c1.252-0.11,2.57-0.14,3.943-0.082c14.936,0.643,32.05,12.44,38.152,26.298
				c4.767,10.828,10.211,9.948,20.094,8.342c11.092-1.798,17.01,3.208,19.554,6.355L380.524,322.103z M298.747,281.396
				c-7.502,0.768-12.526,4.404-13.834,8.161c-0.701,2.013-0.193,3.828,1.394,4.977c1.513,1.094,3.969,1.242,6.253,0.372
				c3.074-1.169,5.291-3.903,6.084-7.501C299.048,285.57,299.034,283.541,298.747,281.396z"/>
		</g>
		<g>
			<polygon style="fill:#2F3856;" points="299.633,239.619 292.96,243.411 288.991,241.119 295.664,237.328 			"/>
			<polygon style="fill:#474864;" points="299.633,236.873 292.96,240.665 288.991,238.374 295.664,234.582 			"/>
			<polygon style="fill:#373951;" points="290.632,237.624 288.991,238.374 292.96,240.665 292.906,238.936 			"/>
			<polygon style="fill:#373951;" points="295.664,234.582 297.489,236.29 299.433,236.819 299.633,236.873 			"/>
			<g>
				<path style="fill:#F77D2B;" d="M294.615,229.551v4.983l3.045-1.758c0.41-0.237,0.663-0.675,0.663-1.148v-4.217L294.615,229.551z
					"/>
				<polygon style="fill:#90969E;" points="297.489,230.132 292.906,232.778 290.632,231.465 295.215,228.819 				"/>
				<polygon style="fill:#90969E;" points="292.906,232.778 292.906,238.936 297.489,236.29 297.489,230.132 				"/>
				<polygon style="fill:#A9AEB7;" points="290.632,231.465 290.632,237.624 292.906,238.936 292.906,232.778 				"/>
			</g>
			<path style="fill:#373951;" d="M316.122,214.687l-9.325,5.384c-0.257,0.148-0.587,0.059-0.735-0.197
				c-0.148-0.256-0.059-0.587,0.197-0.735l9.325-5.384c0.256-0.148,0.587-0.059,0.735,0.197
				C316.467,214.208,316.379,214.539,316.122,214.687z"/>
			<path style="fill:#F9B5A0;" d="M290.214,232.342c0.01,0.076-4.678,2.738-6.193,3.386c-1.514,0.648-0.497,3.637,1.026,4.035
				c1.524,0.398,5.214-1.729,6.146-2.59c0.932-0.861,2.592-1.979,1.767-2.43c-0.825-0.452-0.97-0.16-1.567,0.279
				c-0.598,0.438-1.395,0.518-1.395,0.518L290.214,232.342z"/>
			<path style="fill:#474864;" d="M309.678,217.983l-0.027-0.046c-1.077-1.865-3.484-2.51-5.35-1.433l-3.068,1.771
				c1.254,2.31,2.384,4.699,3.759,6.936l3.251-1.877C310.11,222.256,310.755,219.848,309.678,217.983z"/>
			<g>
				<path style="fill:#FFFFFF;" d="M306.703,222.662c0-1.909-1.161-4.126-2.592-4.952c-0.649-0.374-1.234-0.384-1.689-0.121
					l-0.007-0.014l-2.983,1.723l3.365,7.198l3.001-1.751C306.348,224.427,306.703,223.707,306.703,222.662z"/>
				<path style="fill:#F7F4F9;" d="M303.683,224.406c0,1.909-1.16,2.786-2.592,1.959c-1.431-0.826-2.592-3.044-2.592-4.952
					c0-1.909,1.16-2.786,2.592-1.959C302.522,220.281,303.683,222.497,303.683,224.406z"/>
			</g>
			<path style="fill:#474864;" d="M304.984,224.648c0-2.558-1.555-5.529-3.473-6.637c-0.869-0.502-1.654-0.514-2.263-0.162
				l-0.009-0.02l-14.805,8.702l4.568,9.604l14.77-8.698C304.508,227.013,304.984,226.048,304.984,224.648z"/>
			<path style="fill:#F7F4F9;" d="M291.769,232.359c0-2.558-1.555-5.529-3.473-6.637c-0.869-0.502-1.654-0.514-2.263-0.162
				l-1.6,0.972l4.568,9.604l1.631-0.961C291.369,234.751,291.769,233.759,291.769,232.359z"/>
			<path style="fill:#373951;" d="M290.281,233.284c0,2.558-1.555,3.733-3.473,2.626c-1.918-1.107-3.473-4.079-3.473-6.636
				c0-2.558,1.555-3.733,3.473-2.626C288.726,227.755,290.281,230.727,290.281,233.284z"/>
			<g>
				<path style="fill:#FFFFFF;" d="M288.991,233.053c0-1.909-1.16-4.126-2.592-4.952c-0.648-0.374-1.234-0.383-1.689-0.121
					l-0.007-0.015l-1.344,0.776l3.448,7.169l1.279-0.776C288.636,234.817,288.991,234.097,288.991,233.053z"/>
				<path style="fill:#F7F4F9;" d="M287.639,233.838c0,1.909-1.16,2.786-2.592,1.959c-1.431-0.826-2.592-3.043-2.592-4.952
					c0-1.909,1.16-2.786,2.592-1.959C286.479,229.713,287.639,231.93,287.639,233.838z"/>
			</g>
			<path style="fill:#F77D2B;" d="M298.922,220.055c0-0.005,0.001-0.01,0-0.014v-0.775l-0.652,0.228c0,0-0.812-0.083-1.088,0.076
				l-2.223,0.879l-0.898,0.31v0.834c0.003,0.158,0.12,0.32,0.343,0.449c0.414,0.239,1.045,0.265,1.403,0.058l2.879-1.662
				c0.149-0.086,0.212-0.202,0.224-0.322h0.013V220.055z"/>
			<path style="fill:#FF8D40;" d="M295.806,221.242l2.879-1.662c0.358-0.207,0.313-0.571-0.101-0.81
				c-0.414-0.239-1.045-0.265-1.403-0.058l-2.879,1.662c-0.358,0.207-0.313,0.571,0.101,0.81
				C294.816,221.423,295.448,221.449,295.806,221.242z"/>
			<polygon style="fill:#38386D;" points="288.991,238.374 288.991,241.119 292.96,243.411 292.96,240.665 			"/>
			<polygon style="fill:#373951;" points="292.96,240.665 292.96,243.411 299.633,239.619 299.633,236.873 			"/>
			<path style="fill:#7D7DBC;" d="M302.384,227.38l-7.042,4.066c-0.269,0.155-0.487-0.01-0.487-0.368V228.6
				c0-0.359,0.218-0.776,0.487-0.931l7.042-4.066c0.269-0.156,0.487,0.01,0.487,0.368v2.478
				C302.872,226.808,302.653,227.225,302.384,227.38z"/>
		</g>
		<path style="fill:#FFC9B6;" d="M302.366,231.854c-0.002-2.013-0.479-3.307-0.479-3.307l-2.605,1.585
			c-1.374,1.005-2.469-1.842-3.618-2.215c-1.56-0.506-0.939,1.443-0.467,2.215c0.472,0.772,1.732,2.412,1.099,3.431
			c-0.356,0.574-2.693,1.88-5.133,3.31c-2.119,1.057-3.477,1.774-4.376,2.512c-0.51-1.155-3.757-6.716-7.767-8.704
			c0,0-7.824,4.821-7.017,7.181c1.808,5.283,8.874,8.22,10.58,8.854c1.706,0.633,2.904,1.45,5.266,0.683
			c1.177-0.381,3.288-1.998,5.576-3.978c0.008-0.003,0.015-0.007,0.023-0.01c0-0.003-0.001-0.006-0.001-0.009
			c1.623-1.406,3.332-2.987,4.874-4.466C302.045,235.366,302.368,233.868,302.366,231.854z"/>
		<path style="fill:#D6C9D4;" d="M275.799,244.576c4.507-1.712,8.189-4.57,9.801-8.821c-0.552-0.601-1.884-2.66-2.558-3.286
			c-2.541-6.643-6.1-9.253-8.919-9.405c-3.966-0.213-6.731,3.072-6.067,7.217C269.359,238.416,271.773,241.377,275.799,244.576z"/>
		<path style="fill:#45A0D8;" d="M262.926,214.517c-1.345,0.866-4.498,2.264-6.434,4.778c-5.033,6.537-5.862,11.688-5.862,11.688
			h-2.175c0,0,2.851-8.843,6.317-12.771c3.79-4.296,7.587-4.963,7.587-4.963S263.012,213.772,262.926,214.517z"/>
		<path style="fill:#D6C9D4;" d="M261.413,213.518c0,0,3.245-1.93,4.781-1.12c1.536,0.81,6.393,4.113,7.288,5.855
			c0.895,1.742,1.514,4.723,1.514,4.723s-5.363-1.938-9.474-5.368C261.413,214.179,261.413,213.518,261.413,213.518z"/>
		<path style="fill:#45A0D8;" d="M270.198,253.262c0,0-2.554,2.758-6.208-0.521c-3.654-3.279-6.558-8.305-3.933-15.473
			c-3.145-2.384-7.391-6.039-10.403-8.918c-2.024,3.291-2.806,9.772-4.596,13.941c-1.766,4.111-2.447,9.164-1.835,12.23
			c1.548,1.625,3.36,4.821,10.407,6.856c9.678,2.795,18.434-3.613,17.991-4.849C271.178,255.292,270.198,253.262,270.198,253.262z"
			/>
		<path style="fill:#45A0D8;" d="M268.659,227.609c-6.035,4.308-9.163,11.474-9.163,11.474l-1.754-1.837
			c0,0,5.472-9.022,10.321-12.354c2.084-1.432,3.901-2.19,5.295-2.59c1.849-0.53,2.69,1.255,2.69,1.255
			S273.882,223.881,268.659,227.609z"/>
		<path style="fill:#3C89CE;" d="M243.003,253.081v3.609c0,0,3.286,4.012,11.179,5.73c7.893,1.718,14.914,0.059,17.455-1.302
			c2.54-1.361,5.259-3.902,5.259-3.902l-1.898-1.607c0,0-1.17,1.385-6.338,2.927c-5.168,1.543-11.626,1.251-15.527,0.253
			C249.23,257.791,243.003,253.081,243.003,253.081z"/>
		<path style="fill:#3C89CE;" d="M270.354,284.838c0,0,1.089,1.27,2.268,1.452c1.179,0.181,3.72-0.732,3.72-0.732
			s-1.313-0.359-2.54-0.72C272.847,284.558,271.371,285.021,270.354,284.838z"/>
		<g>
			<path style="fill:#3C89CE;" d="M269.926,204.205c0,0-2.895,4.008-6.992,6.676c-3.824,2.491,0.781,6.841,4.169,6.706
				c4.534-0.18,7.228-2.512,8.945-5.19c1.717-2.677,3.46-3.9,3.46-3.9L269.926,204.205z"/>
			<path style="fill:#45A0D8;" d="M285.516,201.041c-0.554-6.153-9.359-9.633-16.096-4.877c-3.685,2.602-5.69,8.129-2.12,14.02
				C268.111,212.554,284.053,211.771,285.516,201.041z"/>
			<path style="fill:#3C89CE;" d="M273.391,195.451c0.23,0.48-0.304,1.214-1.191,1.639c-0.888,0.425-1.794,0.38-2.024-0.1
				c-0.23-0.48,0.303-1.214,1.191-1.639C272.255,194.925,273.161,194.97,273.391,195.451z"/>
		</g>
	</g>
	<g>
		<g>
			<polygon style="fill:#D1AD99;" points="185.821,79.225 185.821,186.356 84.012,245.135 84.012,252.384 192.37,189.824 
				192.37,75.443 			"/>
			<g>
				<g>
					<polygon style="fill:#FFFFFF;" points="180.159,82.493 84.012,138.004 84.012,236.031 180.159,180.521 					"/>
					<polygon style="fill:#FFF4F0;" points="182.457,81.166 182.457,181.559 84.012,238.396 84.012,245.135 185.821,186.356 
						185.821,79.225 					"/>
					<polygon style="fill:#F4D4C3;" points="182.457,81.166 180.159,82.493 180.159,180.521 84.012,236.031 84.012,238.396 
						182.457,181.559 					"/>
				</g>
			</g>
		</g>
		<path style="fill:#FFE5D9;" d="M84.012,242.564l102.02-58.925l6.332,3.138c0,0,1.261,0.6,2.571,1.313
			c1.309,0.712,1.944,2.158,2.02,4.247c-1.007,0.652-95.235,55.063-108.295,62.596c-0.178-1.734-0.806-2.953-1.972-3.587
			c-0.322-0.175-0.659-0.354-0.989-0.526l-1.687,0.974V242.564z"/>
		<path style="fill:#D1AD99;" d="M88.661,254.933l-4.648-2.526v-3.396c0,0,3.737,1.466,4.456,2.961
			C89.187,253.467,88.661,254.933,88.661,254.933z"/>
		<polygon style="fill:#FFE5D9;" points="182.457,81.166 180.159,82.493 180.159,180.521 182.457,181.559 		"/>
		<g>
			<polygon style="fill:#FFE5D9;" points="133.436,109.355 131.138,110.682 131.138,208.854 133.436,209.892 			"/>
			<polygon style="fill:#FFF4F0;" points="133.436,109.355 136.57,107.503 136.57,208.762 133.436,211.021 			"/>
		</g>
	</g>
	<g>
		<polygon style="fill:#E2AC71;" points="225.064,327.402 166.32,361.318 90.216,317.38 148.96,283.464 		"/>
		<polygon style="fill:#B77D4E;" points="225.064,327.402 166.32,361.318 166.32,363.904 225.064,329.988 		"/>
		<polygon style="fill:#C9905D;" points="90.216,317.38 90.216,319.965 166.32,363.904 166.32,361.318 		"/>
	</g>
	<g>
		<polygon style="fill:#E2AC71;" points="224.289,318.891 165.544,352.807 89.44,308.869 148.185,274.953 		"/>
		<polygon style="fill:#B77D4E;" points="224.289,318.891 165.544,352.807 165.544,355.392 224.289,321.476 		"/>
		<polygon style="fill:#C9905D;" points="89.44,308.869 89.44,311.454 165.544,355.392 165.544,352.807 		"/>
	</g>
	<g>
		<polygon style="fill:#EAB37D;" points="211.723,291.168 178.091,339.804 105.539,318.888 138.907,270.433 		"/>
		<polygon style="fill:#C9905D;" points="105.539,318.888 105.539,320.641 178.091,341.558 178.091,339.804 		"/>
		<polygon style="fill:#B77D4E;" points="211.723,291.168 211.723,292.922 178.091,341.558 178.091,339.804 		"/>
	</g>
	<path style="opacity:0.5;fill:#E0C1AD;" d="M341.244,321.166l-8.38-4.838l-5.633,3.252c-1.413,0.816-3.551,0.905-4.775,0.198
		l-11.058-6.384c-1.224-0.707-1.071-1.941,0.343-2.757l5.633-3.252l-8.38-4.838c-1.829-1.056-5.024-0.924-7.136,0.296
		l-28.813,16.635c-2.112,1.22-2.341,3.064-0.512,4.12l32.251,18.62c1.829,1.056,5.024,0.924,7.136-0.296l28.813-16.635
		C342.844,324.067,343.073,322.222,341.244,321.166z"/>
	<g>
		<path style="fill:#373951;" d="M339.575,312.343h-15.373l-7.672-4.894l-7.692-4.441c-1.679-0.969-4.612-0.848-6.551,0.271
			l-13.78,7.956h-14.272v9.278h0.013c-0.077,0.678,0.288,1.337,1.121,1.818l29.604,17.092c1.679,0.969,4.612,0.848,6.551-0.272
			l26.448-15.27c1.119-0.646,1.643-1.482,1.579-2.261h0.025V312.343z"/>
		<g>
			<path style="fill:#23263A;" d="M337.971,319.056l-26.448,15.27c-1.939,1.119-4.872,1.241-6.551,0.271l-29.604-17.091
				c-0.833-0.481-1.198-1.14-1.121-1.818h-0.013v1.264h0.013c-0.077,0.679,0.288,1.338,1.121,1.818l29.604,17.092
				c1.679,0.969,4.612,0.848,6.551-0.272l26.448-15.27c1.119-0.646,1.643-1.482,1.579-2.261h0.025v-1.264h-0.025
				C339.614,317.574,339.091,318.41,337.971,319.056z"/>
		</g>
		<path style="fill:#373951;" d="M316.53,298.166v9.595c0,0-7.232-0.819-8.051-3.749c-0.819-2.93,1.896-4.352,3.318-4.955
			S316.53,298.166,316.53,298.166z"/>
		<g>
			<path style="fill:#474864;" d="M338.441,310.816l-7.692-4.441l-5.171,2.985c-1.297,0.749-3.26,0.83-4.383,0.182l-10.151-5.86
				c-1.123-0.649-0.983-1.782,0.315-2.531l5.17-2.985l-7.692-4.441c-1.679-0.969-4.612-0.848-6.551,0.272l-26.448,15.27
				c-1.939,1.119-2.149,2.813-0.47,3.782l29.604,17.092c1.679,0.969,4.612,0.848,6.551-0.272l26.448-15.27
				C339.91,313.479,340.121,311.786,338.441,310.816z"/>
		</g>
		<path style="fill:#373951;" d="M307.839,322.904l-21.128-12.198c-0.929-0.537-0.813-1.474,0.26-2.093l11.57-6.68
			c1.073-0.62,2.696-0.687,3.626-0.15l21.128,12.198c0.929,0.536,0.813,1.474-0.26,2.093l-11.57,6.68
			C310.391,323.373,308.768,323.44,307.839,322.904z"/>
		<path style="opacity:0.5;fill:#23263A;" d="M307.386,321.793l-17.756-10.252c-0.781-0.451-0.683-1.238,0.219-1.759l9.723-5.614
			c0.902-0.521,2.266-0.577,3.047-0.126l17.756,10.251c0.781,0.451,0.683,1.239-0.219,1.759l-9.724,5.614
			C309.532,322.187,308.167,322.244,307.386,321.793z"/>
		<polygon style="fill:#FF8D40;" points="312.429,315.042 299.818,307.76 302.021,306.471 314.633,313.753 		"/>
		<path style="fill:#373951;" d="M305.717,294.716c-1.818,0-3.291,0.746-3.291,1.665s1.473,1.665,3.291,1.665
			s3.291-0.746,3.291-1.665S307.535,294.716,305.717,294.716z"/>
		<path style="opacity:0.5;fill:#23263A;" d="M305.717,295.788c-0.997,0-1.806,0.409-1.806,0.914c0,0.505,0.808,0.914,1.806,0.914
			c0.997,0,1.806-0.409,1.806-0.914C307.522,296.197,306.714,295.788,305.717,295.788z"/>
		<ellipse style="fill:#373951;" cx="333.248" cy="312.343" rx="3.291" ry="1.665"/>
		<path style="opacity:0.5;fill:#23263A;" d="M333.248,311.75c-0.997,0-1.806,0.409-1.806,0.914c0,0.505,0.808,0.914,1.806,0.914
			c0.997,0,1.806-0.409,1.806-0.914C335.054,312.159,334.245,311.75,333.248,311.75z"/>
		<path style="fill:#373951;" d="M308,325.197c-1.818,0-3.291,0.746-3.291,1.665s1.473,1.665,3.291,1.665
			c1.818,0,3.291-0.745,3.291-1.665S309.818,325.197,308,325.197z"/>
		<path style="opacity:0.5;fill:#23263A;" d="M308,326.27c-0.997,0-1.806,0.409-1.806,0.914c0,0.505,0.808,0.913,1.806,0.913
			c0.997,0,1.806-0.409,1.806-0.913C309.806,326.679,308.997,326.27,308,326.27z"/>
		<path style="fill:#373951;" d="M280.296,309.091c-1.818,0-3.291,0.746-3.291,1.665c0,0.92,1.474,1.665,3.291,1.665
			c1.818,0,3.291-0.746,3.291-1.665C283.588,309.837,282.114,309.091,280.296,309.091z"/>
		<path style="opacity:0.5;fill:#23263A;" d="M280.296,310.164c-0.997,0-1.806,0.409-1.806,0.914c0,0.504,0.808,0.913,1.806,0.913
			c0.997,0,1.806-0.409,1.806-0.913C282.102,310.573,281.294,310.164,280.296,310.164z"/>
	</g>
</g>
</svg>
